<svg width="326" height="264" viewBox="0 0 326 264" fill="none" xmlns="http://www.w3.org/2000/svg">
<path fill-rule="evenodd" clip-rule="evenodd" d="M162.806 172.71C157.818 172.645 152.83 172.58 147.842 172.516C149.69 173.721 151.538 174.926 153.386 176.131C166.437 184.643 179.488 193.154 192.538 201.665C189.429 203.738 186.32 205.811 183.211 207.884C180.101 209.956 176.992 212.029 173.883 214.102C174.984 215.268 176.085 216.434 177.186 217.6C178.287 218.766 179.388 219.932 180.49 221.098L178.446 222.261C177.067 223.046 175.688 223.83 174.309 224.615C172.655 225.556 171.002 226.497 169.348 227.437C167.224 228.646 165.1 229.854 162.976 231.063L158.959 233.348C158.88 233.393 158.794 233.45 158.702 233.51C158.429 233.689 158.116 233.895 157.868 233.873C157.516 233.841 156.962 233.4 156.526 233.053C156.347 232.91 156.187 232.783 156.07 232.707C154.793 231.876 153.518 231.043 152.245 230.207C148.327 227.636 144.423 225.043 140.534 222.427C131 216.013 121.487 209.522 112.36 202.536C108.143 199.309 104.229 195.963 100.934 191.765C97.3097 187.145 94.3162 182.044 91.6846 176.804C89.4685 172.394 87.5065 167.853 85.7665 163.234C85.5982 162.788 85.3604 162.266 85.1058 161.708C84.4552 160.281 83.6953 158.615 83.7148 157.361C83.7245 156.717 84.1132 155.877 84.4575 155.133C84.6134 154.796 84.7607 154.479 84.859 154.208C85.2329 153.18 85.6068 152.151 85.9807 151.123C86.3546 150.095 86.7288 149.067 87.1027 148.038C87.2263 147.697 87.3888 147.33 87.5567 146.951C87.908 146.156 88.2823 145.309 88.3713 144.548C88.4801 143.622 88.2077 142.462 87.9566 141.393C87.84 140.896 87.7277 140.42 87.6608 139.994C87.6348 139.831 87.6165 139.593 87.5955 139.322C87.5334 138.514 87.4482 137.413 87.0779 137.137C86.8415 136.961 86.1354 136.976 85.6095 136.987C85.4027 136.991 85.2243 136.994 85.1128 136.986C82.9969 136.823 80.8815 136.66 78.766 136.498C77.6727 136.414 76.579 136.329 75.4857 136.245L49.6697 134.26C48.8889 134.2 48.0766 134.173 47.255 134.146C45.5837 134.092 43.8736 134.036 42.3151 133.694C40.5588 133.309 39.4608 131.9 38.9357 130.253C37.3597 125.308 35.8696 120.284 34.91 115.178C33.9819 110.243 34.8781 106.403 36.9019 101.836C38.6734 97.8392 40.7655 93.8753 43.1445 90.2013C43.7217 89.3097 43.8107 89.3287 44.5573 89.4881C44.6984 89.518 44.8628 89.553 45.0587 89.588C50.112 90.4885 55.1654 91.3894 60.2187 92.2903C68.7704 93.815 77.3225 95.3393 85.8742 96.8637C94.4262 98.388 102.978 99.9127 111.53 101.437C117.56 102.512 123.591 103.587 129.621 104.662C129.892 104.71 130.242 104.74 130.621 104.773C131.474 104.845 132.468 104.93 133.006 105.265C133.292 105.444 133.526 105.874 133.73 106.251C133.811 106.399 133.886 106.538 133.959 106.651L134.093 106.858C135.165 108.52 136.237 110.181 137.309 111.843C142.11 119.285 147.021 126.656 151.932 134.026C153.432 136.277 154.932 138.528 156.429 140.781C160.58 147.03 164.732 153.279 168.883 159.528C171.845 163.987 174.807 168.445 177.769 172.904C172.781 172.84 167.794 172.775 162.806 172.71ZM203.421 153.86C216.722 153.828 230.437 153.219 243.453 150.362C253.368 148.185 263.325 143.7 271.436 137.536C269.736 144.017 267.359 152.123 262.337 156.819C260.575 158.467 258.27 159.587 256.099 160.642C255.918 160.73 255.737 160.818 255.558 160.905C252.142 162.573 248.639 164.065 245.113 165.482C244.601 165.688 244.087 165.895 243.571 166.103C237.813 168.429 231.806 170.854 225.721 171.969C223.88 172.305 222.942 171.975 221.41 170.87C218.954 169.1 216.722 166.989 214.523 164.909C214.418 164.81 214.313 164.71 214.208 164.611C210.52 161.124 206.932 157.525 203.421 153.86Z" fill="#29339B"/>
<path fill-rule="evenodd" clip-rule="evenodd" d="M135.652 0.774881C138.857 2.20321 140.548 6.1551 142.231 9.01292C144.25 12.4425 146.08 16.0341 147.111 19.8958C148.168 23.8527 148.315 28.1913 147.846 32.2513C147.64 34.0376 147.157 35.6633 146.646 37.3723C146.1 39.199 146.95 40.2437 148.246 41.5317C150.937 44.2072 154.325 46.2601 156.322 49.5564C158.014 52.3493 159.982 52.8662 163.171 52.9859C171.093 53.2832 178.857 53.038 186.706 54.5534C188.698 54.9381 190.678 55.4092 192.639 55.9351C193.283 56.1076 193.956 56.4092 194.62 56.4699C195.577 56.5569 195.74 56.1764 196.455 55.8083C199.6 54.1896 203.592 55.7446 206.735 56.6327C214.67 58.8749 222.158 61.927 229.35 65.971C237.117 70.338 245.396 73.7279 253.091 78.2247C260.525 82.5688 267.204 88.036 274.137 93.1073C281.188 98.2652 287.876 103.846 294.397 109.658C300.699 115.274 307.215 120.787 312.853 127.089C317.993 132.835 322.053 139.636 324.777 146.864C325.686 149.277 325.126 150.796 322.284 150C322.033 152.441 320.213 153.461 317.907 152.939C318.615 154.987 320.233 157.76 319.307 159.963C318.076 162.893 314.551 160.761 312.822 159.619C313.01 161.974 314.012 165.797 312.067 167.697C309.053 170.642 303.966 166.889 301.831 164.689C296.391 159.081 292.912 152.142 288.083 146.092C282.097 138.594 275.354 131.524 268.587 124.736C268.053 124.2 262.029 117.738 261.166 118.616C263.794 122.968 265.895 127.758 269.569 131.374C271.313 128.924 272.577 130.131 272.905 132.591C273.298 135.548 273.736 138.662 273.191 141.625C272.119 147.458 268.437 153.006 264.568 157.374C260.52 161.943 255.495 165.422 250.104 168.222C247.052 169.807 243.991 171.293 240.708 172.334C239.237 172.8 237.765 173.341 236.254 173.664C234.802 173.976 233.232 173.954 231.888 174.659C243.927 180.406 257.246 182.827 269.313 188.427C272.226 189.778 278.075 193.291 275.119 197.239C272.833 200.294 267.638 200.402 264.228 201.012C266.736 203.38 266.363 205.578 263.065 206.868C261.74 207.385 260.359 207.626 258.946 207.662C257.987 207.687 256.329 207.346 255.554 208.1C258.544 209.47 262.621 209.387 265.078 211.794C267.585 214.249 264.591 216.225 262.35 217.172C259.403 218.417 255.35 219.731 252.352 218.229C249.982 217.042 247.795 217.3 245.174 216.988C242.472 216.666 239.802 216.087 237.195 215.31C227.271 212.348 218.132 206.868 209.368 201.478C200.612 196.092 192.446 189.973 184.894 182.991C183.031 181.269 181.48 179.219 179.576 177.551C177.572 175.796 175.474 175.638 172.91 175.668C167.082 175.734 161.265 174.697 155.441 175.38C163.813 181.69 172.66 187.248 181.467 192.916C184.818 195.072 188.341 197.948 192.28 198.888C194.009 199.301 197.717 199.574 198.292 201.705C198.711 203.26 197.381 203.522 196.585 204.365C195.431 205.587 197.055 205.996 198.246 206.502C199.747 207.14 201.117 207.346 202.751 207.177C205.254 206.919 207.217 207.004 209.548 208.076C213.212 209.76 217.146 210.666 220.819 212.313C222.34 212.995 222.74 215.028 223.474 216.408C224.629 218.577 225.963 220.643 227.272 222.72C229.739 226.636 231.869 230.664 235.37 233.788C238.439 236.526 241.855 238.951 245.188 241.358C250.393 245.118 257.014 249.767 255.341 257.143C253.687 264.434 246.13 263.65 240.372 262.348C237.948 261.8 234.636 260.268 232.192 260.988C230.084 261.61 228.632 261.702 226.444 261.206C223.908 260.63 221.356 260.255 218.786 259.858C213.4 259.025 207.969 257.651 202.822 255.85C200.353 254.986 198.291 253.833 196.347 252.068C195.769 251.544 195.349 250.8 194.581 250.806C193.928 250.812 192.918 251.971 192.413 252.373C190.818 253.643 189.053 254.704 187.233 253.193C186.071 252.229 185.037 250.13 186.717 249.136C188.006 248.375 190.359 249.247 191.282 247.807C192.25 246.299 190.087 244.111 189.41 242.886C187.367 244.273 184.359 247.078 181.989 244.756C180.091 242.896 182.203 241.768 183.954 241.173C186.118 240.437 188.623 240.531 187.52 237.637C186.893 235.993 185.89 234.52 185.729 232.726C185.606 231.363 186 230.05 186.009 228.697C186.027 226.279 183.426 224.196 181.161 223.623C179.778 223.273 179.367 224.455 178.518 225.361C177.269 226.692 175.674 227.689 174.084 228.558C171.476 229.982 168.737 231.113 166.004 232.263C164.192 233.025 160.99 234.023 162.283 236.332C164.176 239.711 159.74 238.094 158.14 237.327C154.419 235.543 150.662 233.84 146.987 231.958C139.451 228.099 132.518 223.332 125.862 218.116C119.327 212.994 112.948 207.554 107.011 201.747C104.135 198.933 101.386 195.973 98.9376 192.778C96.3075 189.345 94.0929 185.623 91.4131 182.224C88.6326 178.697 85.8844 175.275 84.0931 171.115C82.4335 167.26 80.5497 162.956 80.5198 158.721C80.4867 154.042 80.5054 149.84 82.0526 145.351C82.6982 143.479 83.4736 141.528 84.5987 139.891C84.9221 139.42 86.6198 137.811 86.2719 137.169C86.2914 137.205 82.4149 137.798 82.0095 137.836C79.4362 138.082 76.8473 137.641 74.2837 137.402C66.7033 136.694 59.0514 136.959 51.4989 135.919C48.6516 135.526 45.5621 135.938 42.7828 135.215C41.4699 134.874 41.1466 134.122 40.1819 133.507C39.7416 133.226 39.2705 133.318 38.8609 132.928C38.3813 132.471 38.2775 131.812 38.0653 131.215C36.9316 128.032 35.0213 125.19 33.8988 122.001C32.6369 118.413 32.694 114.696 32.7857 110.946C30.9112 111.095 28.9423 111.108 27.1836 110.349C25.7642 114.81 19.651 114.729 15.893 114.391C11.1999 113.968 5.69729 113.526 3.31869 108.816C0.52341 103.28 0.708021 96.5601 0.369887 90.5188C-0.0273232 83.4238 -0.140423 76.2227 0.208205 69.1235C0.504752 63.0852 1.88061 56.8173 5.78474 52.0251C9.22943 47.7969 15.1888 45.3223 19.8764 49.268C23.3996 52.2342 24.9379 57.5764 25.1684 62.0254C25.2857 64.2893 25.18 66.3228 27.9671 65.6951C29.0386 65.4537 30.0126 65.0635 30.8028 66.1626C31.4996 67.1308 31.1798 68.5304 30.2975 69.2544C29.498 69.9113 27.9426 69.8001 27.395 70.7764C26.8524 71.7446 27.7106 73.2953 28.739 73.4924C29.91 73.7166 30.8117 72.2121 31.9909 72.9102C33.0714 73.5503 32.507 74.7462 31.783 75.4466C30.9264 76.276 30.1012 76.4489 30.7138 77.7614C31.1833 78.7684 32.1231 79.4389 32.5447 80.5065C33.5856 83.1405 33.9292 86.9252 32.7717 89.5743C34.7803 89.7978 39.6366 92.1737 41.2165 90.2518C41.7898 89.5545 41.8582 88.5304 42.4777 87.8192C43.2065 86.982 44.2251 86.626 45.3037 86.4911C47.6096 86.2027 49.9688 86.9043 52.2086 87.3563C55.9219 88.1064 59.6577 88.7632 63.3873 89.4259C70.8919 90.7594 78.4661 91.6875 85.9521 93.1201C93.4221 94.55 100.815 96.358 108.203 98.1587C112.077 99.1027 115.933 100.164 119.836 100.982C123.484 101.745 127.285 102.308 130.68 103.924C130.009 99.7724 128.136 95.9573 126.968 91.944C125.767 87.816 125.43 83.6955 126.108 79.4447C126.729 75.5499 127.649 71.7648 129.637 68.3228C130.44 66.931 131.324 65.5447 132.482 64.4222C133.304 63.6239 134.463 62.9601 135.114 62.0083C135.755 61.0689 135.619 60.8508 134.463 60.4182C133.821 60.1773 133.238 60.1046 132.629 59.7672C132.069 59.4571 131.587 58.8939 130.928 58.7867C129.409 58.5387 127.189 60.0109 125.797 60.5348C123.898 61.2496 121.936 61.8932 119.909 62.1109C113.255 62.8252 105.364 58.9658 100.803 54.2902C99.2808 52.7298 95.7871 49.1417 97.2069 46.7619C97.9562 45.5057 99.2959 45.8042 100.421 45.2337C102.182 44.3402 101.066 42.8578 100.222 41.6813C97.9236 38.4764 96.3821 34.8087 94.7366 31.2427C93.0614 27.6134 90.7652 24.3689 88.8826 20.8558C87.5312 18.3349 85.9649 15.5152 85.3438 12.7099C84.5851 9.28381 86.9039 8.79954 89.7388 8.30866C98.7052 6.75558 107.534 4.66886 116.42 2.72595C119.962 1.95174 123.521 1.16471 127.086 0.504374C129.865 -0.010212 132.984 -0.413641 135.652 0.774881ZM214.352 214.505C209.729 214.743 205.076 215.77 204.928 221.165C205.489 231.403 212.147 239.056 219.181 245.847C220.956 247.56 222.693 249.376 224.62 250.92C225.754 251.829 226.991 252.244 228.218 252.964C228.518 253.14 229.038 253.731 229.317 253.821C229.98 254.036 230.038 253.795 230.685 253.726C232.095 253.578 232.355 254.56 233.427 255.364C235.461 256.889 239.111 256.666 241.5 257.143C243.705 257.583 252.485 260.763 252.09 256.183C251.704 251.707 246.931 249.532 243.567 247.534C238.878 244.748 234.045 241.732 230.098 237.935C226.345 234.325 223.895 229.385 221.374 224.889C219.803 222.087 219.369 219.711 218.915 216.58C218.723 215.256 218.704 214.822 217.408 214.599C216.406 214.426 215.363 214.453 214.352 214.505ZM198.265 213.761C195.594 214.627 193.576 216.769 192.247 219.192C191.566 220.432 191.176 221.683 190.951 223.07C190.664 224.835 190.005 226.72 190.498 228.494C191.393 231.714 193.741 235.23 195.585 237.993C197.659 241.1 200.351 244.588 203.624 246.493C206.773 248.327 210.576 248.815 213.497 251.078C213.235 249.834 212.068 248.915 211.152 248.139C209.817 247.008 208.649 245.884 207.514 244.537C205.005 241.559 202.92 238.333 201.583 234.658C200.288 231.097 199.546 227.089 199.712 223.293C199.79 221.487 200.101 219.567 200.881 217.92C201.402 216.818 202.325 215.881 202.725 214.723C203.638 212.068 199.597 213.329 198.265 213.761ZM139.689 125.75C135.96 126.173 132.263 126.89 128.506 127.237C120.912 127.938 113.03 128.352 106.148 131.98C96.1354 137.259 84.6038 148.973 88.0765 161.312C92.1788 175.888 100.949 189.068 111.929 199.383C118.939 205.967 126.616 211.901 134.317 217.649C141.766 223.21 150.383 226.857 158.062 232.055C158.583 224.395 163.396 217.371 169.088 212.497C172.146 209.879 175.356 207.37 178.785 205.255C180.47 204.216 182.215 203.338 183.992 202.47C185.341 201.812 186.831 200.832 188.372 200.758C188.347 199.629 185.514 199.212 184.733 198.946C182.035 198.029 179.447 196.624 176.949 195.263C171.509 192.3 166.484 188.684 161.45 185.091C158.99 183.335 156.491 181.632 154.057 179.838C151.866 178.224 149.923 176.123 147.568 174.749C145.145 173.335 142.282 173.039 139.579 172.518C136.332 171.892 133.137 171.148 129.875 170.598C124.427 169.681 119.285 166.472 114.262 164.286C112.574 163.551 109.998 162.913 108.709 161.521C107.541 160.26 107.846 158.312 109.343 157.448C111.918 155.961 116.209 157.9 118.644 158.859C123.148 160.633 127.62 162.221 132.4 163.13C138.946 164.375 145.168 166.706 151.723 167.926C158.792 169.241 165.878 170.681 173.066 171.166C171.305 167.676 168.385 164.777 166.111 161.62C163.502 157.999 160.897 154.376 158.31 150.738C153.751 144.326 148.668 137.882 145.203 130.794C144.015 128.364 142.846 125.391 139.689 125.75ZM173.543 219.186C172.505 219.352 171.722 220.389 171.016 221.075C168.832 223.198 166.695 225.3 164.916 227.789C167.668 226.627 169.912 224.602 172.564 223.271C173.519 222.791 176.895 221.721 176.214 220.384C175.832 219.633 174.307 219.064 173.543 219.186ZM186.169 210.636C183.475 212.474 180.671 214.118 177.83 215.716C179.822 216.473 181.812 217.518 183.447 218.89C184.195 219.518 185.732 221.355 186.813 220.893C187.818 220.464 188.364 217.977 188.851 217.08C190.097 214.782 191.839 212.612 193.713 210.8C190.898 208.916 189.011 208.696 186.169 210.636ZM163.431 110.561C161.276 111.161 159.136 111.817 156.982 112.422C152.681 113.629 148.285 114.639 143.793 114.639C143.182 115.763 144.933 117.598 145.471 118.456C146.883 120.708 148.088 123.123 149.369 125.455C152.083 130.397 155.044 135.148 158.238 139.792C161.466 144.485 164.381 149.4 167.686 154.036C170.885 158.523 174.404 162.883 177.869 167.167C191.371 183.861 210.188 195.373 228.682 205.714C233.866 208.613 239.267 211.167 245.008 212.75C247.378 213.404 249.796 213.957 252.208 214.444C253.828 214.771 256.524 215.504 258.016 214.455C253.332 212.599 247.193 211.883 243.409 208.292C241.067 206.068 243.636 204.409 246.024 203.996C250.646 203.197 255.435 205.21 259.972 203.904C258.759 201.679 255.274 201.785 253.154 201.214C250.473 200.492 250.374 199.137 252.926 198.216C256.067 197.082 259.688 197.697 262.962 197.488C264.56 197.387 271.257 197.12 269.234 194.05C267.642 191.636 263.767 190.959 261.23 190.068C257.672 188.818 254.215 186.868 250.591 185.9C247.046 184.953 243.434 184.371 239.889 183.371C236.189 182.327 232.546 181.167 229.031 179.602C222.252 176.582 215.968 172.484 210.244 167.779C204.346 162.93 199.175 157.373 194.417 151.414C191.914 148.279 189.532 145.053 187.097 141.866C184.745 138.789 182.085 135.856 180.202 132.458C178.12 128.701 175.422 125.271 173.265 121.526C172.097 119.497 170.84 117.507 169.75 115.434C168.976 113.96 168.449 111.799 167.402 110.519C166.417 109.315 164.696 110.209 163.431 110.561ZM63.8478 158.178C64.5703 158.839 64.4502 159.111 64.3111 159.949C64.0262 161.668 63.7118 163.355 63.5796 165.099C63.1265 171.063 63.9675 177.249 64.8968 183.14C65.8245 189.017 68.0547 194.448 71.4916 199.309C74.8216 204.019 78.8411 207.772 84.1366 210.083C85.0457 210.48 88.6459 211.936 88.4131 213.279C88.2382 214.289 86.3691 213.718 85.6971 213.574C76.1784 211.534 68.1114 202.926 63.301 194.914C61.3095 191.597 60.0284 188.224 58.9285 184.558C58.7676 184.023 56.4625 176.437 57.241 176.342C56.569 171.089 56.368 164.703 58.8504 159.841C59.7778 158.025 61.9508 156.446 63.8478 158.178ZM47.2408 159.308C46.3721 163.268 46.6593 167.308 46.8509 171.319C46.8859 172.049 47.3033 174.301 46.095 174.258C45.2411 174.228 44.5606 172.048 44.3511 171.488C43.0821 168.095 42.6313 164.272 43.2652 160.695C43.4653 159.562 43.7677 158.188 45.013 157.795C46.0962 157.453 47.3368 158.064 47.2408 159.308ZM269.679 141.027C269.143 141.286 268.908 141.778 268.748 142.318C264.56 145.887 259.634 149.342 254.738 151.861C250.364 154.111 245.299 155.059 240.525 156.076C229.607 158.404 218.736 159.344 207.847 156.332C212.296 160.438 216.332 165.893 221.941 168.509C224.728 169.809 227.813 169.025 230.623 168.201C234.071 167.191 237.54 166.159 240.876 164.82C247.181 162.29 253.924 159.49 259.225 155.153C261.575 153.23 263.491 150.854 265.178 148.342C266.143 146.904 266.961 145.366 267.938 143.938C268.501 143.115 269.735 142.101 269.679 141.027ZM223.159 68.0127C222.999 70.0434 221.803 71.7492 220.748 73.4166C220.03 74.5503 218.633 75.9176 219.296 77.2037C220.083 78.73 222.591 79.7051 223.89 80.749C225.814 82.2947 227.617 83.9835 229.389 85.6994C232.568 88.7788 235.86 91.7637 238.971 94.9087C241.928 97.8967 244.796 100.941 248.525 102.978C256.712 107.452 263.919 113.702 271.073 119.645C278.367 125.703 285.571 132.072 291.899 139.15C295.286 142.938 298.101 147.095 300.515 151.558C301.757 153.854 303.087 156.099 304.331 158.394C304.881 159.409 305.503 160.395 306.004 161.437C306.375 162.211 306.618 163.464 307.305 164.037C308.665 161.019 306.543 157.027 305.313 154.308C304.472 152.45 303.647 150.585 302.817 148.721C302.235 147.414 301.024 145.836 300.958 144.377C300.796 140.831 305.363 143.382 306.615 144.519C309.715 147.333 311.503 151.563 313.697 155.054C314.213 152.275 308.68 147.983 310.971 145.56C312.788 143.639 316.137 148.14 317.154 149.359C317.851 145.922 316.064 142.56 314.196 139.81C312.115 136.744 309.709 133.829 307.244 131.068C301.481 124.615 294.895 118.871 288.38 113.198C281.898 107.554 275.226 102.139 268.581 96.6899C262.128 91.3983 255.578 86.1071 248.366 81.8707C244.322 79.4952 240.08 77.508 235.951 75.2907C231.628 72.9688 227.529 70.2494 223.159 68.0127ZM166.791 60.1847C166.602 60.2317 165.512 60.3627 165.43 60.4587C165.074 60.8776 165.548 62.2325 165.968 62.4758C164.521 63.5574 162.895 64.5419 161.056 64.7102C162.213 65.8455 164.412 67.8315 164.07 69.6625C163.599 72.1814 160.572 70.415 159.347 69.6528C157.38 68.4289 155.369 67.1308 153.929 65.2854C153.015 64.1144 152.703 62.8726 152.019 61.6114C151.647 60.9262 151.863 60.8022 151.04 60.7548C150.1 60.7016 148.491 61.5936 147.619 61.948C146.272 62.496 144.96 63.1284 143.693 63.8427C141.357 65.1615 139.171 66.7616 137.255 68.6415C133.289 72.5328 130.602 77.6452 130.262 83.2431C133.077 82.9092 135.831 81.6954 138.203 80.1812C139.892 79.1031 141.616 77.836 141.914 80.8785C142.029 82.0635 141.698 84.823 140.987 85.7398C140.322 86.596 140.036 85.9019 139.346 86.4153C138.549 87.01 138.97 87.8658 138.97 88.7006C138.586 88.378 138.202 88.0559 137.818 87.7333C137.123 88.6412 137.909 88.155 138.172 88.7041C138.325 89.0244 137.278 89.9463 137.069 90.1095C136.636 90.4477 136.397 90.1678 135.902 90.6537C135.584 90.9661 135.242 91.6673 134.897 92.0575C133.115 94.0739 135.474 97.2337 136.408 99.3717C137.098 100.955 137.852 102.507 138.57 104.077C139.097 105.226 139.381 106.589 140.08 107.648C141.466 109.75 144.644 108.602 146.718 108.344C149.532 107.995 152.295 107.637 155.111 107.373C156.762 107.218 158.628 106.257 156.508 105.013C154.404 103.78 147.135 103.546 147.087 100.373C147.038 96.9993 151.725 96.4385 154.076 96.7284C157.514 97.1521 159.736 98.0199 162.088 100.615C161.561 95.6662 158.05 91.5732 157.267 86.6081C157.054 85.2594 156.399 76.9468 159.64 80.538C161.376 82.4615 162.751 85.3725 164.034 87.5968C165.976 90.9642 167.668 94.4633 169.451 97.915C171.151 101.209 173.643 104.375 174.834 107.879C175.505 109.85 176.44 113.993 178.568 114.999C179.931 115.644 182.232 114.8 183.64 114.595C184.51 114.468 185.358 114.343 186.104 113.841C186.491 113.581 186.872 112.907 187.36 112.832C188.765 112.614 189.128 114.761 189.032 115.75C188.885 117.274 188.185 117.669 186.763 117.847C189.16 119.021 185.467 122.694 184.819 124.158C184.786 124.083 184.365 123.054 184.053 123.055C183.431 123.057 185.955 128.026 186.146 128.372C187.47 130.77 189.132 132.926 190.74 135.137C191.664 136.407 192.994 139.413 194.874 139.129C195.915 138.972 198.079 136.828 198.897 138.298C199.635 139.624 197.355 141.046 197.012 142.1C196.436 143.868 198.602 145.727 199.878 146.654C203.26 149.11 207.645 149.69 211.647 150.432C210.883 149.401 209.217 148.839 209.184 147.363C209.161 146.359 209.871 145.811 209.391 144.718C208.996 143.818 208.006 143.296 207.712 142.331C207.387 141.268 207.899 140.06 208.484 139.182C210.961 135.458 216.494 137.008 219.738 138.699C219.499 138.805 219.3 138.957 219.142 139.156L219.104 139.207L219.112 139.201C219.529 138.946 221.334 139.745 221.559 139.907C222.269 140.42 223.228 141.614 223.719 142.353C225.299 144.735 225.526 147.637 224.705 150.336C234.599 150.336 243.92 147.699 252.774 143.496C254.796 142.536 256.783 141.922 258.699 140.714C260.667 139.474 262.537 138.097 264.469 136.805C266.285 135.592 266.121 134.864 264.905 133.14C263.424 131.041 262.12 128.803 260.476 126.824C260.224 127.372 260.125 128.469 259.586 128.806C258.989 129.179 258.442 128.439 258.04 128.719C258.076 128.694 256.806 130.667 256.601 130.176C257.131 131.447 255.012 130.635 254.636 130.4C254.724 131.591 253.733 132.617 253.177 131.024C251.667 132.407 248.084 131.141 250.016 129.009C250.97 127.957 252.008 127.398 252.608 126.024C253.279 124.486 253.513 122.746 253.598 121.083C253.797 117.165 251.676 115.335 249.018 112.794C247.534 111.375 245.984 110.028 244.457 108.656C243.114 107.45 241.953 105.957 240.544 104.839C239.533 104.037 238.725 103.806 237.744 104.503C237.339 104.79 237.207 105.155 236.688 105.432C236.021 105.787 235.033 106.006 234.29 106.099C230.555 106.564 226.231 105.283 222.807 103.903C221.87 103.526 221.421 102.911 220.61 102.443C220.096 102.147 219.659 102.327 219.115 101.973C217.691 101.05 217.763 99.5687 218.798 98.4152C221.222 95.7121 224.704 98.1435 227.181 95.9608C230.268 93.241 225.121 89.4803 223.043 87.8157C221.379 86.4829 219.949 86.1946 217.916 85.8448C217.49 85.7713 214.665 84.9559 215.653 86.1281C213.459 86.0714 212.379 86.0803 210.612 87.4503C210.149 87.8094 209.532 88.1491 209.405 88.762C209.338 89.0854 210.004 89.1503 210.005 89.1472C209.916 89.3645 209.245 89.759 209.148 89.8281C210.279 89.9622 209.985 92.1811 209.694 92.1935L209.677 92.1912L209.71 92.22C210.203 92.6871 209.09 93.4069 208.712 93.5278C207.64 93.871 206.622 93.1251 205.905 92.3801C204.3 90.7123 203.134 87.8751 203.237 85.5634C203.381 82.3188 205.512 80.4377 207.27 78.0055C208.585 76.1858 206.631 75.218 205.27 74.0761C203.605 72.6797 201.341 70.9626 200.793 68.7379C200.295 66.7114 201.677 66.0181 203.449 66.6275C205.843 67.4507 207.78 69.5692 209.902 70.895C211.785 72.0714 214.162 74.4737 216.463 74.6109C216.041 73.1088 213.95 73.2681 213.141 72.1523C212.073 70.6781 213.733 70.0209 214.988 70.1899C215.962 70.3209 218.742 72.3839 218.67 70.0053C218.631 68.7309 216.506 68.3042 215.58 67.9357C210.878 66.0639 206.061 64.7872 201.074 63.9201C199.458 63.6395 199.044 63.8361 198.263 65.2955C197.998 65.7911 197.045 68.071 196.523 66.5595C195.839 67.7981 195.64 69.118 194.155 69.6163C192.265 70.2498 189.834 69.312 188.093 68.5848C186.598 67.9606 185.177 67.0853 184.218 65.7507C183.741 65.0872 183.393 64.3507 183.168 63.5656C182.976 62.8991 183.067 61.8065 182.721 61.201C182.143 60.1885 180.765 60.407 179.702 60.3059C177.327 60.0801 174.982 59.8761 172.595 59.8481C170.612 59.8251 168.718 59.7047 166.791 60.1847ZM218.42 149.145C217.661 149.417 219.01 150.326 219.456 150.219C219.273 149.924 218.97 148.948 218.42 149.145ZM219.104 139.207L219.083 139.223C219.057 139.247 219.039 139.277 219.032 139.315C219.049 139.287 219.067 139.26 219.085 139.233L219.104 139.207ZM234.295 115.331C234.983 115.908 234.705 117.246 235.176 118.067C236.436 120.267 238.706 122.437 240.845 123.766C243.149 125.197 244.239 127.053 244.804 129.645C244.921 130.18 245.273 130.924 245.101 131.478C244.94 131.997 244.358 132.169 244.179 132.63C244.097 132.842 244.44 134.475 244.399 134.48C244.2 134.504 243.62 133.682 243.624 133.686C243.394 134.256 243.474 134.904 242.854 135.209L242.779 135.242L242.789 135.25C242.943 135.369 243.647 135.954 243.479 136.082C243.245 136.261 242.672 136.139 242.38 136.243C241.919 136.407 241.586 136.818 241.142 137.01C239.952 137.522 238.579 137.364 237.322 137.183C234.676 136.803 231.697 135.856 229.784 133.896C227.466 131.52 228.016 129.059 227.807 126.395C227.572 123.406 229.728 118.876 231.46 116.559C232.051 115.767 233.235 114.442 234.295 115.331ZM43.9088 92.0765C43.7591 92.4302 43.9084 92.9821 43.8206 93.3704C43.6433 94.157 43.187 94.8457 42.7479 95.5061C41.9258 96.742 41.0988 97.8746 40.5379 99.2691C39.1609 102.692 37.8838 106.381 37.2242 110.01C35.8095 117.802 40.5329 124.229 40.7902 131.818C42.9593 129.534 46.2578 129.425 49.1969 129.418C53.108 129.41 56.9829 129.574 60.8792 129.916C68.3329 130.572 75.9526 130.838 83.0169 133.562C83.7946 133.862 84.378 133.992 85.1588 134.156C86.0166 134.336 85.5622 133.934 86.1895 134.442C86.3582 134.578 86.4255 135.072 86.6019 135.245C87.5145 136.137 88.0609 135.531 88.834 134.573C90.9607 131.937 93.0828 129.541 95.819 127.492C101.648 123.127 108.176 121.112 115.362 120.463C119.48 120.091 123.501 119.876 127.637 119.916C131.586 119.954 135.756 120.027 139.497 121.44C138.567 118.777 136.977 116.39 135.696 113.892C135.074 112.679 134.496 111.404 133.705 110.288C133.01 109.306 131.96 108.504 131.479 107.384C131.393 107.609 131.307 107.834 131.22 108.059C123.623 105.883 115.789 104.71 108 103.466C100.176 102.216 92.4489 100.483 84.6415 99.1501C80.7215 98.4809 76.7871 98.0786 72.8387 97.6301C69.038 97.1987 65.3737 96.3549 61.6262 95.6378C57.831 94.9114 54.1371 94.0315 50.4052 93.0311C48.8405 92.6117 47.3593 92.033 45.8365 91.5281C44.622 91.1259 44.346 91.0396 43.9088 92.0765ZM211.91 105.891C212.137 106.823 211.411 108.024 211.179 108.909C210.916 109.912 210.344 110.314 210.046 111.226C209.787 112.019 210.254 116.22 208.228 114.965C208.29 115.267 208.623 115.681 208.657 115.95C208.701 116.284 208.375 116.796 208.47 117.085C208.555 117.345 209.445 118.107 209.661 118.541C210.511 120.246 211.113 122.209 211.532 124.067C211.969 126.004 212.5 128.687 210.896 130.024C210.51 130.345 210.174 130.431 209.779 130.817C209.732 131.174 209.57 131.469 209.29 131.702C209.137 131.745 209.014 131.707 208.922 131.588C208.433 131.853 208.596 130.739 208.021 131.821C207.882 132.082 208.133 132.978 208.009 132.886C207.783 132.72 207.104 132.011 206.883 131.998C206.39 132.669 206.401 131.985 205.88 132.081C205.86 132.359 205.709 132.512 205.428 132.54C205.208 132.49 204.989 132.439 204.77 132.388C203.443 132.396 201.484 131.84 200.21 131.488C197.779 130.817 196.045 129.144 195.517 126.609C194.419 121.33 198.859 114.73 202.034 110.891C203.118 109.58 210.734 101.068 211.91 105.891ZM233.111 122.9C233.077 123.343 233.214 124.006 232.715 124.055C232.738 123.554 232.528 122.914 233.111 122.9ZM198.52 122.148C198.747 123.426 198.799 122.696 198.285 123.575C198.112 123.058 198.19 122.582 198.52 122.148ZM235.33 120.5C235.527 120.745 236.283 121.408 235.632 121.578C235.063 121.726 235.306 120.802 235.33 120.5ZM207.942 111.638C207.683 113.014 208.463 112.684 209.536 112.435C209.005 112.169 208.473 111.904 207.942 111.638ZM9.04443 56.1492C3.90401 60.5601 3.74894 68.2731 3.91101 74.4815C4.13138 82.9174 4.64324 91.3766 5.45865 99.7751C5.8271 103.57 6.90952 105.502 10.6554 106.774C14.7134 108.152 19.0843 107.885 23.2935 107.64C22.4886 101.383 20.9133 93.1496 27.1906 88.9847C27.765 88.6039 28.2905 88.3225 28.9897 88.2863C29.4514 88.2626 30.1137 88.6812 30.5521 88.4671C31.4386 88.0337 30.9314 86.8063 30.6411 86.1118C29.7584 84.0006 28.074 82.3111 26.7075 80.5197C24.9911 78.271 23.5166 78.3316 20.9537 78.6091C19.932 78.7202 15.9124 79.1781 16.7037 76.9965C17.2786 75.4104 20.4364 75.8076 21.7159 75.4403C22.6856 75.1617 22.8834 75.0388 22.8419 74.0478C22.7762 72.499 21.8881 72.0784 20.5103 72.1208C18.738 72.1748 15.6695 73.1169 14.1938 71.7232C12.0865 69.7325 15.2117 68.3387 16.7963 68.0682C18.4551 67.7853 20.6735 68.043 21.0564 65.9897C21.4209 64.0312 20.3879 61.6612 19.5806 59.9367C18.7994 58.2686 17.7318 56.1426 16.1017 55.141C13.8016 53.7282 10.964 54.5017 9.04443 56.1492ZM28.9959 93.0012C26.908 93.4695 25.7067 96.1882 25.4641 98.0891C25.2298 99.9279 25.3895 102.552 26.7378 103.965C28.5074 105.82 31.5921 105.695 33.4966 107.435C34.3404 103.247 35.9004 99.2166 37.9498 95.4742C36.3315 95.0284 34.7543 94.452 33.1584 93.9347C31.9909 93.5566 30.2497 92.7198 28.9959 93.0012ZM163.018 102.024C163.487 102.424 163.635 102.546 163.756 103.174C162.644 103.245 162.979 102.888 163.018 102.024ZM174.043 72.2331C175.78 72.2782 176.593 72.8406 177.987 73.6731C178.98 74.2666 180.185 73.628 180.185 75.1356C183.021 72.9067 188.31 78.6619 190.298 80.1696C192.396 81.7596 194.46 83.6313 194.693 86.469C194.761 87.3092 194.587 88.1705 194.714 89.0073C194.809 89.6377 195.208 90.2677 195.14 90.9214C195.06 91.6793 194.419 92.1224 194.271 92.8348C194.213 93.117 194.413 93.6836 194.289 93.9118C193.017 96.2426 191.388 98.1548 188.599 98.3853C186.169 98.5862 183.485 97.7191 181.714 96.0238C180.143 94.52 179.207 92.2666 178.8 90.1593C178.729 89.7947 178.863 88.9595 178.743 88.6513C178.569 88.202 178.306 88.1942 178.089 87.8308C177.515 86.8669 176.691 85.0503 177.436 83.9912C175.6 84.406 174.204 80.4704 173.518 79.3227C173.004 78.4633 171.765 77.7906 171.421 76.9546C170.949 75.808 172.644 75.316 172.057 74.5173C171.743 74.0897 170.055 74.3809 170.221 73.3097C170.374 72.319 173.38 72.2156 174.043 72.2331ZM209.626 92.1535C209.642 92.1745 209.659 92.1869 209.677 92.1916V92.1912L209.671 92.1861L209.626 92.1535ZM204.776 83.5719C204.936 83.4351 205.789 82.5711 205.889 83.219C205.971 83.7499 205.032 83.5719 204.776 83.5719ZM125.129 16.2684C123.277 16.3815 121.626 18.3812 120.246 19.4309C118.186 20.998 115.751 22.1485 113.323 23.0183C110.497 24.03 107.592 24.9305 104.69 25.6981C101.747 26.477 98.6811 26.6363 95.7471 27.4455C97.1987 30.1024 98.6508 32.7597 100.103 35.4169C100.739 34.5405 100.522 33.551 101.57 32.9209C102.297 32.4837 103.349 32.4238 104.171 32.2622C106.46 31.8117 108.971 31.4129 111.294 31.8789C112.793 32.1798 114.46 33.3337 113.041 34.9451C112.145 35.9618 110.217 35.7006 110.059 37.3155C109.909 38.8628 111.489 40.192 111.123 41.8189C110.609 44.1058 108.324 43.421 107.308 41.9425C106.402 40.6242 106.745 38.2798 105.347 37.3291C104.512 36.7621 102.282 36.5576 101.383 37.0431C103.034 40.0909 106.244 43.8489 104.361 47.4926C103.783 48.6119 102.519 49.0387 103.366 50.1386C104.343 51.4072 107.162 52.4523 108.663 52.064C110.069 51.7006 111.679 50.1172 113.26 50.9007C114.752 51.6404 113.695 52.8961 113.826 54.0578C114.224 57.5569 121.4 55.5612 123.348 55.0967C125.303 54.6311 127.342 53.5044 129.36 53.4581C131.262 53.4142 133.029 54.3314 134.537 55.4057C135.666 56.2102 137.545 58.5639 138.977 58.6425C140.414 58.7214 142.451 56.5938 143.719 55.9498C145.995 54.7939 148.482 54.4597 150.893 53.6894C151.276 53.5673 152.948 53.2234 152.978 52.6649C153.007 52.1281 151.03 50.954 150.694 50.6975C147.627 48.355 145.38 45.1256 142.188 42.932C140.766 41.9538 139.228 41.2643 137.566 40.824C136.643 40.5799 134.131 40.2507 134.065 38.9351C138.492 38.1935 138.602 32.671 136.735 29.5396C135.548 27.5481 133.706 26.6009 131.379 27.0292C128.008 27.6503 127.392 30.1179 126.62 33.0461C123.865 31.5474 120.862 27.8773 120.698 24.6433C120.517 21.0478 124.377 19.5017 125.129 16.2684ZM207.368 40.4322C212.012 41.2938 216.555 42.4423 221.028 43.9686C223.783 44.9088 227.791 45.7172 230.174 47.4809C230.869 47.9963 231.745 49.1296 231.11 50.0352C230.563 50.816 229.225 50.6058 228.433 50.4841C224.837 49.931 221.315 48.4261 217.757 47.6146C208.302 45.4583 198.602 44.4451 188.943 43.7548C186.279 43.5648 183.613 43.4004 180.949 43.213C178.731 43.0576 176.293 43.1279 174.12 42.6258C172.407 42.2297 171.98 40.9709 173.263 39.5534C174.514 38.1721 176.612 38.3874 178.288 38.1352C188.037 37.4986 197.793 38.6556 207.368 40.4322ZM191.21 29.1498C194.371 30.2388 190.677 30.7581 189.294 30.6438C188.826 30.6053 182.644 29.992 182.644 30.1821C181.41 30.1821 178.145 31.1257 177.259 29.8781C176.307 28.5384 180.382 28.0681 181.206 28.0087C184.372 27.7805 188.167 28.1016 191.21 29.1498Z" fill="black"/>
</svg>
