<svg width="39" height="36" viewBox="0 0 39 36" fill="none" xmlns="http://www.w3.org/2000/svg">
<g clip-path="url(#clip0_26_6)">
<path d="M5.97925 30.7636H2.07324L13.3706 0.297485H17.2165L28.5139 30.7636H24.6079L15.4138 5.11733H15.1734L5.97925 30.7636ZM7.42145 18.8628H23.1657V22.1355H7.42145V18.8628Z" fill="#F0EDEE"/>
<path d="M31.3682 13.0909C31.0377 12.0892 30.602 11.1917 30.0612 10.3983C29.5304 9.59502 28.8944 8.91072 28.1533 8.34542C27.4222 7.78013 26.5909 7.34871 25.6595 7.05119C24.728 6.7537 23.7065 6.60492 22.5947 6.60492C20.7719 6.60492 19.1144 7.07106 17.6221 8.00326C16.1298 8.9355 14.943 10.3091 14.0616 12.124C13.1803 13.9388 12.7396 16.1652 12.7396 18.8033C12.7396 21.4413 13.1852 23.6677 14.0766 25.4826C14.968 27.2975 16.1749 28.6711 17.6972 29.6033C19.2195 30.5355 20.9322 31.0016 22.8351 31.0016C24.5978 31.0016 26.1502 30.6297 27.4923 29.8859C28.8443 29.1322 29.8959 28.071 30.6471 26.7024C31.4083 25.3239 31.7889 23.7024 31.7889 21.838L32.9306 22.076H23.6764V18.8033H35.3945V22.076C35.3945 24.5851 34.8537 26.7669 33.772 28.6214C32.7003 30.476 31.218 31.914 29.3251 32.9354C27.4422 33.947 25.2789 34.453 22.8351 34.453C20.1109 34.453 17.7172 33.818 15.654 32.5487C13.6009 31.2793 11.9984 29.4743 10.8467 27.1339C9.70489 24.7934 9.13403 22.0165 9.13403 18.8033C9.13403 16.3934 9.45952 14.2264 10.1105 12.3024C10.7715 10.3686 11.703 8.72228 12.9048 7.36361C14.1067 6.00493 15.5288 4.96362 17.1714 4.23962C18.8139 3.51566 20.6217 3.15369 22.5947 3.15369C24.2172 3.15369 25.7296 3.39667 27.1317 3.8826C28.5439 4.35865 29.8008 5.03797 30.9025 5.92063C32.0142 6.79337 32.9407 7.83962 33.6818 9.05947C34.4231 10.2694 34.9337 11.6132 35.214 13.0909H31.3682Z" fill="#F0EDEE"/>
<path d="M0 35.8364H39" stroke="#AB87FF"/>
</g>
<defs>
<clipPath id="clip0_26_6">
<rect width="39" height="36" fill="white"/>
</clipPath>
</defs>
</svg>
