<svg width="379" height="296" viewBox="0 0 379 296" fill="none" xmlns="http://www.w3.org/2000/svg">
<path fill-rule="evenodd" clip-rule="evenodd" d="M94.5681 164.536C96.7233 180.71 98.878 196.884 101.033 213.058L102.773 226.119C102.993 227.768 102.786 231.019 103.622 232.494C103.918 233.014 104.695 233.262 105.266 233.568C107.233 234.625 109.199 235.681 111.166 236.738C127.799 245.675 144.433 254.611 161.066 263.548C177.029 272.125 192.993 280.702 208.956 289.278C210.608 290.166 213.28 292.482 215.063 291.871C216.758 291.292 218.491 289.861 220.03 288.959C222.984 287.226 225.938 285.494 228.892 283.761C246.768 273.278 264.644 262.793 282.52 252.31C289.896 247.985 297.271 243.659 304.646 239.334C306.664 238.15 308.682 236.967 310.7 235.783C311.756 235.164 311.893 235.186 312.308 234.135C313.861 230.208 314.581 225.709 315.68 221.633C316.891 217.142 318.102 212.651 319.313 208.16C319.853 206.156 319.6 205.897 318.719 203.963C316.976 200.134 315.233 196.305 313.49 192.477C309.622 183.979 305.753 175.481 301.885 166.983C300.32 163.547 296.552 161.129 293.839 158.602L251.718 119.358C250.648 118.361 249.578 117.364 248.509 116.367C248.332 122.358 247.149 128.799 248.885 134.586C251.732 144.084 254.579 153.582 257.427 163.08C258.803 167.671 260.179 172.262 261.555 176.853C261.811 177.706 263.368 181.088 262.952 181.838C262.721 182.254 260.755 182.675 260.329 182.837C258.499 183.533 256.67 184.23 254.84 184.926C249.742 186.867 244.644 188.808 239.546 190.749C234.961 192.495 230.376 194.24 225.791 195.985C224.236 196.578 222.41 197.674 220.768 197.582C219.299 197.5 217.629 196.773 216.208 196.407C213.709 195.763 211.21 195.118 208.711 194.474C203.802 193.209 198.893 191.944 193.984 190.678C188.461 189.254 183.797 185.073 179.074 181.979C170.955 176.659 162.837 171.34 154.719 166.02C152.86 164.803 152.853 164.108 152.113 161.884C150.448 156.887 148.784 151.891 147.119 146.894C146.231 144.226 145.138 141.546 144.467 138.815C143.36 134.307 142.703 129.64 141.826 125.083C141.562 123.707 141.297 122.332 141.033 120.957C137.633 122.337 134.233 123.718 130.833 125.099C130.34 125.299 127.939 125.896 127.725 126.386C127.59 126.696 128.304 128.103 128.406 128.405C131.225 136.76 134.045 145.115 136.864 153.471C137.751 156.099 138.637 158.727 139.524 161.355C137.405 158.023 135.286 154.69 133.167 151.358C131.502 156.962 129.837 162.567 128.172 168.172C124.236 163.627 120.301 159.083 116.365 154.539C115.003 159.083 113.64 163.627 112.278 168.172C108.04 162.567 103.802 156.962 99.5632 151.358C99.0596 154.283 98.5556 157.207 98.0515 160.132C97.8994 161.015 97.9298 163.548 97.3427 164.246C96.8591 164.822 95.4668 164.536 94.5681 164.536Z" fill="#29339B"/>
<path fill-rule="evenodd" clip-rule="evenodd" d="M362.912 199.498C362.674 207.111 362.839 216.994 358.675 223.689C358.003 224.769 355.727 228.134 355.473 225.174C355.223 222.267 355.938 219.389 355.23 216.449C354.851 214.875 353.578 211.439 351.4 212.86C350.291 213.584 349.998 215.373 349.564 216.501C348.922 218.171 348.203 219.815 347.527 221.472C345.165 227.258 342.719 234.162 337.47 237.99C338.157 233.002 340.029 227.675 338.77 222.632C338.342 220.913 337.042 217.775 334.805 218.782C332.624 219.763 331.211 224.141 330.182 226.091C327.062 232.001 323.871 237.801 320.358 243.491C318.591 246.353 316.683 248.968 314.371 251.416C312.926 252.948 311.124 255.536 308.845 255.764C308.845 251.4 310.28 247.184 311.59 243.074C312.999 238.656 314.284 234.199 315.667 229.772C316.867 225.932 317.852 222.121 318.651 218.183C318.982 216.554 319.243 214.868 320.631 213.816C321.878 212.871 323.848 212.421 325.238 211.726C328.889 209.9 332.644 207.931 336.036 205.662C337.428 204.73 338.627 203.527 340.085 202.691C341.747 201.739 343.298 200.938 344.835 199.778C351.468 194.772 357.447 188.613 361.476 181.282C362.13 184.228 362.996 187.105 363.092 190.141C363.19 193.254 363.01 196.387 362.912 199.498ZM308.325 234.493C307.264 232.7 305.648 233.434 304.224 234.299C302.014 235.64 299.799 236.971 297.578 238.295C293.058 240.99 288.622 243.826 284.206 246.687C275.217 252.509 265.915 257.275 256.438 262.204C247.279 266.966 238.482 272.634 229.9 278.364C227.838 279.741 225.79 281.15 223.809 282.643C222.052 283.969 220.646 285.83 218.795 287.01C216.868 288.239 215.543 287.242 213.7 286.336C211.395 285.203 208.993 284.253 206.637 283.231C197.128 279.106 187.593 274.823 178.343 270.141C169.149 265.488 160.438 260.125 151.629 254.8C147.434 252.264 143.31 249.567 139.172 246.938C134.768 244.14 130.208 242.044 125.589 239.665C123.545 238.612 121.734 237.183 119.635 236.226C117.428 235.22 115.097 234.499 113.12 233.048C112.234 232.397 111.487 231.619 110.474 231.159C109.643 230.781 108.699 230.718 107.878 230.316C106.208 229.5 105.73 227.844 105.407 226.121C103.326 215.062 102.221 203.696 101.015 192.514C100.337 186.225 99.5813 179.961 98.6449 173.706C98.2226 170.886 99.0718 168.701 99.5177 165.958C100.038 162.754 100.244 159.482 100.593 156.256C102.238 159.307 103.661 162.509 105.755 165.293C107.299 167.345 109.935 170.255 112.777 170.186C117.195 170.079 116.993 162.497 117.171 159.488C119.183 161.285 119.793 164.213 121.464 166.3C122.988 168.206 125.064 170.571 127.405 171.424C132.336 173.222 131.862 164.063 131.59 161.465C131.454 160.162 130.719 158.101 132.463 158.695C134.069 159.242 135.632 161.51 136.982 162.55C139.316 164.349 141.876 165.844 144.27 167.56C147.24 169.691 150.445 171.23 153.474 173.214C155.368 174.456 157.434 174.734 159.499 175.647C162.524 176.984 165.196 178.977 168.076 180.58C173.778 183.754 180.104 186.599 186.341 188.512C188.359 189.131 191.048 190.876 192.579 189.083C193.521 187.98 194.141 186.294 194.941 185.057C195.953 183.491 197.028 181.967 198.144 180.473C202.112 175.165 206.515 170.153 211.406 165.676C217.095 160.467 223.316 155.78 229.971 151.877C232.83 150.2 244.768 142.682 247.392 147.973C245.236 147.838 243.367 148.628 241.523 149.616C241.073 149.857 238.752 151.516 239.295 150.054C238.62 150.18 238.029 151.06 237.519 151.452C236.636 152.128 235.298 152.908 234.276 153.468C233.267 154.021 232.019 154.157 231.098 154.827C230.762 155.072 230.558 155.47 230.238 155.734L229.319 155.742C229.181 156.251 229.043 156.76 228.906 157.27C228.386 155.603 227.645 157.77 226.777 158.474C226.256 158.897 225.43 159.333 224.815 159.606C224.356 159.81 224.285 159.336 223.839 159.697C223.443 160.017 223.191 160.723 222.765 161.124C222.242 161.616 221.573 161.998 220.991 162.418C219.875 163.223 218.694 163.854 217.563 164.617C216.042 165.643 215.244 167.407 213.767 168.48C213.068 168.988 211.981 169.048 211.602 169.373C210.653 170.19 210.966 171.428 209.195 171.483C209.356 171.741 209.453 172.021 209.486 172.323C209.064 172.25 208.689 172.075 208.36 171.798C208.434 173.565 206.697 174.196 205.656 175.285C205.055 175.912 204.308 176.794 203.884 177.549C203.814 177.675 203.68 178.683 203.65 178.696C203.49 178.773 202.511 177.913 202.604 177.985C202.331 179.618 200.752 181.162 200.06 182.674C199.696 183.471 199.326 184.751 198.608 185.312C198.412 185.464 197.812 185.305 197.315 185.834C196.951 186.222 196.531 186.94 196.383 187.455C196.285 187.799 196.403 188.689 196.261 188.895C196.002 189.272 195.597 188.893 195.191 189.172C194.439 189.687 194.42 190.493 193.319 190.599C194.078 192.443 198.657 193.011 200.321 193.536C205.028 195.018 209.966 196.498 214.365 198.769C215.503 199.356 216.58 199.84 216.782 201.193C217.063 203.075 216.104 205.578 215.921 207.479C215.426 212.614 215.325 217.9 215.428 223.056C215.526 227.94 215.684 232.87 215.912 237.749C216.122 242.271 217.034 246.705 217.526 251.196C217.66 252.429 217.571 257.987 219.688 257.707C221.457 257.474 220.34 253.677 220.307 252.589C220.233 250.18 220.74 247.721 220.718 245.29C220.708 244.122 221.219 243.115 221.268 241.997C221.316 240.893 220.768 240.02 220.932 238.875C221.09 237.776 224.336 231.456 221.219 232.196C221.401 231.293 221.561 230.381 221.802 229.491C222.136 229.791 222.404 230.141 222.607 230.541C222.884 228.6 222.792 226.662 222.964 224.72C223.041 223.84 223.398 222.876 223.276 221.989C223.299 221.621 223.252 221.261 223.136 220.907C222.944 220.704 222.707 220.597 222.425 220.587C222.276 220.101 222.238 219.967 222.502 219.491C222.615 219.167 222.839 218.966 223.175 218.886C223.814 218.81 223.887 218.442 223.393 217.783C223.651 216.481 223.684 215.66 223.498 214.361C223.342 213.27 223.917 211.157 223.331 210.186C222.648 209.05 222.308 210.152 222.181 208.578C222.154 208.244 222.132 207.55 222.266 207.218C222.413 206.856 222.854 207.004 222.91 206.876C223.293 206.001 223.318 204.279 221.964 204.428C222.017 203.803 222.07 203.178 222.122 202.554C223.101 203.681 222.759 202.727 223.314 202.1C224.061 201.256 224.793 201.11 225.861 200.776C228.709 199.888 231.452 198.55 234.235 197.465C240.128 195.167 246.129 193.115 251.849 190.4C263.88 184.687 275.671 178.487 287.776 172.925C286.911 171.32 287.449 171.241 288.081 169.734C288.924 170.32 288.747 169.911 289.347 169.875C289.293 169.372 289.449 169.22 289.816 169.42C290.108 169.509 290.407 169.541 290.714 169.515C291.463 169.643 292.075 170.056 292.757 170.213C292.98 170.377 293.226 170.501 293.494 170.584C293.734 170.529 293.939 170.41 294.109 170.227C295.212 170.431 295.583 171.262 295.632 172.466C295.64 172.675 295 172.89 295.183 173.171C295.503 173.663 296.365 173.545 296.858 173.608C296.75 174.119 296.642 174.629 296.535 175.139C298.698 174.14 298.134 177.268 298.79 178.295C298.973 178.582 299.381 178.353 299.593 178.685C299.869 179.119 299.786 179.733 300.021 180.164C300.554 181.141 301.087 181.022 301.618 182.141C304.392 187.98 308.082 193.42 310.745 199.384C312.013 202.223 313.157 205.11 314.48 207.924C315.698 210.514 316.394 212.716 315.526 215.543C313.513 222.104 311.359 228.784 308.72 235.121C308.589 234.912 308.457 234.702 308.325 234.493ZM167.875 283.463C167.686 283.784 167.497 284.106 167.308 284.428C166.888 282.013 168.006 283.133 167.875 283.463ZM158.993 278.94C158.388 278.759 158.649 277.77 158.669 277.346C159.052 277.824 159.427 278.311 159.746 278.835C159.495 278.87 159.244 278.905 158.993 278.94ZM134.652 269.655C135.288 269.299 135.745 269.042 136.466 268.638C135.733 270.067 135.733 270.067 134.652 269.655ZM96.3581 143.808C95.3868 146.193 98.3484 160.924 95.5911 161.405C95.1956 160.112 95.1461 156.552 93.509 156.127C91.4779 155.6 91.6781 159.264 91.4007 160.398C87.2307 157.494 85.3784 151.888 83.3862 147.444C80.8469 141.781 78.8488 135.89 76.9407 129.989C75.3091 124.943 73.96 119.809 72.3111 114.772C71.2753 111.608 70.1587 108.436 69.4621 105.175C69.3109 104.467 68.7156 102.671 69.2214 101.997C69.9566 101.018 72.6031 102.139 73.4559 102.397C78.9882 104.062 84.7272 104.78 90.4112 105.748C96.7264 106.822 103.027 107.933 109.381 108.767C110.968 108.975 112.557 109.172 114.146 109.364C115.177 109.488 116.737 109.364 117.716 109.826C119.698 110.762 120.12 114.343 120.856 116.201C123.602 123.132 126.834 129.843 129.725 136.712C132.33 142.899 134.304 149.481 138.048 155.115C135.256 153.876 131.717 147.327 128.597 151.102C127.256 152.725 127.594 154.863 127.701 156.806C127.856 159.614 127.905 162.444 127.905 165.257C124.852 164.463 122.8 160.994 121.197 158.537C119.007 155.181 117.628 152.019 116.659 148.171C116.239 146.506 115.125 146.464 114.136 145.467C113.5 144.826 113.18 143.963 112.268 144.895C111.122 146.067 111.885 149.311 112.083 150.694C112.553 153.985 114.094 159.051 112.596 162.144C110.573 166.318 105.154 155.815 104.519 154.298C104.196 153.526 98.4297 138.719 96.3581 143.808ZM92.5718 72.2762C92.9133 72.3285 93.2543 72.3807 93.5958 72.433C93.3206 72.6761 92.748 73.5286 92.2803 73.3032C92.3774 72.9611 92.4746 72.6189 92.5718 72.2762ZM110.659 68.3922C110.552 68.5099 110.444 68.6272 110.337 68.7449C109.848 68.1323 110.021 67.2394 110.021 66.5309C110.668 66.9222 110.826 67.7047 110.659 68.3922ZM112.12 75.1887V77.1909C110.764 76.6028 110.738 76.2993 112.12 75.1887ZM113.767 77.7344C112.817 77.4735 112.703 77.2631 112.837 75.8021C113.231 76.6206 113.49 77.16 113.767 77.7344ZM119.235 92.5623C118.837 93.5875 116.51 91.1445 116.595 90.4133C116.676 89.7158 117.034 89.5076 117.527 89.9562C117.69 90.1048 117.448 90.6414 117.552 90.8278C117.927 91.5021 118.684 92.0538 119.235 92.5623ZM119.261 98.7389C118.678 100.196 117.639 97.9014 119.162 97.8387C119.262 98.1318 119.295 98.4317 119.261 98.7389ZM118.13 96.4417C117.904 96.1405 117.685 95.8351 117.472 95.5243C118.257 95.6829 118.88 96.8271 119.708 96.0637C119.609 97.2279 118.783 97.2602 118.13 96.4417ZM67.3864 77.5176C66.1245 76.1393 74.3532 75.1718 75.3459 74.9351C82.5498 73.216 89.3513 70.7284 96.087 67.6761C99.3002 66.2201 102.497 64.7464 105.635 63.1323C106.99 62.4356 108.847 61.8449 109.979 60.7988C110.787 60.0521 110.754 59.4873 111.804 59.0424C112.696 58.6657 112.74 59.0215 113.148 58.3399C113.394 57.9309 113.671 56.4322 113.528 55.9887C113.137 54.7785 112.559 55.7596 111.747 54.9258C111.163 54.3245 111.304 52.615 111.464 51.907C111.671 52.2442 111.79 52.6104 111.822 53.0049C112.702 52.5705 112.347 51.0786 113.31 50.8341C114.325 50.5769 114.22 51.368 114.485 52.1769C115.252 51.0499 114.637 50.0888 114.222 48.9882C116.332 48.5929 118.6 48.2098 120.691 48.9123C122.204 49.4199 123.498 50.6682 125.095 50.9095C126.659 51.1454 126.96 50.4033 128.113 49.6503C129.049 49.0391 129.853 49.7589 130.334 49.2972C130.037 50.8559 127.484 50.6428 127.798 52.5905C127.94 53.467 129.013 54.2546 129.502 54.9367C130.116 55.7928 130.605 56.7394 131.022 57.7041C132.648 61.4568 133.342 65.8116 134.024 69.8246C135.707 79.7302 135.92 89.8312 137.503 99.7686C138.258 104.502 139.014 109.238 139.406 114.018C139.504 115.213 140.233 117.923 139.636 119.073C139.132 120.044 138.009 120.047 137.024 120.281C135.096 120.74 133.285 121.363 131.436 122.053C129.778 122.672 129.296 123.051 128.231 121.49C127.202 119.98 126.693 118.179 125.956 116.523C125.018 114.413 123.885 112.378 122.797 110.342C124.934 110.342 126.164 109.188 126.108 107.014C126.046 104.606 124.067 104.035 123.252 102.057C122.458 103.088 122.392 103.117 121.826 102.138C121.18 101.019 120.743 98.9706 120.348 97.701C120.631 98.0032 120.914 98.3054 121.197 98.6071C121.91 97.6246 120.792 96.0759 120.419 95.1507C119.842 93.722 119.74 92.1774 119.193 90.7528C118.895 89.9753 118.204 89.3631 118.034 88.552C117.921 88.0089 118.374 87.4923 118.267 86.941C118.08 85.9813 116.995 84.9516 116.657 83.9755C116.138 82.474 115.575 81.1521 114.931 79.6893C114.059 77.7094 114.262 75.6317 114.103 73.5245C113.937 71.3397 113.238 69.2493 112.991 67.074C112.82 65.5712 113.355 63.6789 112.218 62.4751C112.085 64.476 112.659 64.4451 110.78 64.805C108.641 65.2144 107.09 66.809 105.068 67.2848C104.651 67.383 104.347 65.5607 104.51 68.0464C103.54 67.3298 101.469 68.2196 102.242 68.6449C101.657 69.2716 100.504 68.838 100.311 69.7769C98.3216 67.8415 95.1316 74.4293 92.7625 70.9929C92.3715 73.3219 90.6864 74.6988 88.424 75.0069C87.2865 75.1614 86.5854 75.5408 85.5759 75.8821C85.3711 75.9507 85.2957 76.2457 85.0532 76.3252C84.6827 76.4461 84.1387 76.0811 83.8717 76.152C83.3281 76.2965 82.7237 77.0123 81.9649 77.1545C81.0948 77.3176 80.1458 77.2427 79.2748 77.1418C78.1859 77.0154 77.7068 76.8864 76.6405 77.2454C75.6815 77.5685 74.6543 78.4733 73.7643 77.4881C72.3661 79.9088 69.0325 79.3171 67.3864 77.5176ZM132.025 48.3057C130.967 48.1789 131.702 47.2682 132.192 46.9946C133.523 46.2521 133.168 48.4429 132.025 48.3057ZM73.4369 56.9925C79.6471 48.0266 90.2695 41.8664 99.6158 36.6832C104.721 33.8521 109.932 31.1079 115.292 28.7907C117.957 27.6392 120.653 26.5322 123.374 25.5207C124.828 24.9804 126.298 24.4891 127.77 24.0002C128.177 23.8652 128.917 23.4508 129.343 23.4912C129.27 23.4839 130.402 23.792 130.179 23.8888C130.908 23.5712 131.255 22.7428 132.113 22.4115C133.076 22.0389 134.304 21.8848 135.336 21.8512C136.249 21.8212 137.04 22.1988 137.91 22.2284C138.481 22.2474 138.967 21.9757 139.527 21.9357C139.814 21.9157 139.788 22.3447 139.961 22.3697C140.036 22.3806 140.799 22.0938 140.806 22.0988C141.084 22.2774 141.33 22.9745 141.581 23.2467C142.301 24.0274 143.359 24.5714 144.319 24.9822C145.488 25.4821 148.339 25.9847 147.018 27.8342C147.956 27.6992 148.393 28.5481 147.218 28.763C146.581 28.8798 146.309 28.2963 145.837 27.8982C144.744 26.9803 142.093 25.6734 140.52 25.7324C139.635 25.7656 138.951 26.4377 138.135 26.6817C137.332 26.9217 136.934 26.5495 136.23 26.6086C135.406 26.6772 134.875 27.3747 134.09 27.4988C133.355 27.6151 132.946 27.1134 132.288 27.1484C131.507 27.1898 130.751 27.8687 130.005 28.0968C128.819 28.4595 127.948 28.7067 126.79 29.3079C124.546 30.4735 122.04 30.9161 119.727 31.9195C117.878 32.7215 115.781 33.1437 114.07 34.0307C112.168 35.0164 110.256 35.9984 108.393 37.0695C107.047 37.8434 104.311 38.1097 102.827 37.9129C102.805 40.6476 101.46 38.7304 100.105 39.9283C100.425 40.2114 100.79 40.4195 101.196 40.5527C99.7271 41.1398 98.3693 41.8705 96.9461 42.5453C95.4753 43.2433 93.9059 43.3969 92.9396 44.717C92.0496 45.9335 92.3511 45.306 91.0229 45.785C90.4135 46.0049 89.8835 46.6756 89.4444 47.126C88.6897 47.9003 88.5226 49.0727 88.0916 47.4813C87.9658 47.6754 87.4709 48.911 87.3746 48.9423C86.8347 48.3688 86.757 49.0486 86.455 49.2918C86.614 49.8203 86.3869 50.1665 85.7739 50.3306C85.4637 50.5614 85.1495 50.7877 84.8321 51.009C83.6805 51.8084 82.2146 52.4941 81.4036 53.6852C80.8056 53.3321 80.584 52.7227 80.9482 52.1006C79.8052 53.1549 78.4415 54.2378 78.1323 55.8605C77.9901 55.7233 77.8244 55.6242 77.6364 55.5633C77.1723 55.8769 77.7767 56.8112 78.071 57.0216C79.3543 56.5226 77.7504 56.7035 78.6127 56.7839C78.8584 56.8066 79.1109 56.9907 79.382 56.9939C80.1771 57.0043 80.9241 56.9661 81.7124 56.8448C83.4507 56.5767 85.159 56.0773 86.8419 55.5765C88.6747 55.0312 90.5079 54.4868 92.3002 53.8179C93.7761 53.2671 95.2274 52.6532 96.6782 52.0415C97.2577 51.797 97.8366 51.5494 98.417 51.3067C99.5191 50.8459 100.1 50.0888 99.9464 51.3858C100.824 51.2399 101.585 49.9984 102.259 49.4917C103.207 48.7796 104.273 48.2484 105.397 47.8849C105.852 47.7376 106.186 47.5504 106.656 47.549C106.887 47.5486 107.025 48.1993 107.17 48.1639C108.178 47.9194 107.719 47.3604 108.172 46.5552C109.163 44.7952 111.833 43.8218 113.473 42.8221C114.514 42.1873 115.253 41.3334 116.214 40.6304C116.663 40.3018 116.99 40.1564 117.461 40.0174C117.821 39.9106 118.264 40.7394 118.497 39.9065C117.659 39.5634 116.967 39.1403 116.16 38.8899C115.589 38.7122 116.274 38.1047 115.37 38.4664C115.006 38.6118 114.881 39.3153 114.748 39.6097C113.737 38.7068 110.897 39.6425 109.698 40.0205C109.615 40.0464 109.245 39.851 109.071 39.8629C108.379 39.9092 107.897 40.8412 107.441 41.243C106.23 42.3104 104.917 42.7566 103.425 43.366C103.822 41.1961 106.739 40.3073 108.441 39.4761C110.93 38.261 113.247 36.71 115.971 36.0566C117.786 35.6208 120.19 35.2704 120.974 37.3817C121.443 38.6473 121.502 41.7914 119.915 42.3754C119.748 41.7846 120.284 41.2798 120.446 40.7672C118.866 41.3706 118.606 43.2697 117.406 44.2608C116.732 44.8175 116.491 44.9961 116.165 45.5341C115.841 46.0685 115.686 46.567 114.927 47.1355C113.687 44.4994 113.896 48.1103 113.267 48.5633C113.52 48.3811 112.243 48.9132 112.395 48.8569C112.336 48.8787 111.779 47.9762 111.418 47.9953C110.761 48.0298 110.888 48.7537 110.571 49.1182C109.498 50.3515 108.112 51.1604 106.385 50.9663C106.344 51.8438 106.615 52.8922 105.417 52.9722L105.26 51.0268C104.609 51.6866 103.751 52.3133 103.22 53.0771C102.617 53.9465 102.681 54.4818 101.68 55.0612C100.634 55.6669 98.4079 56.8602 97.1628 56.9634C97.4706 56.5262 97.4161 56.1313 97.0002 55.7796C96.374 56.4258 95.4494 56.4894 94.7828 57.0729C97.0969 58.0404 93.005 57.9904 92.486 58.0999C92.1386 58.1735 91.8352 58.4903 91.4833 58.5616C91.016 58.6566 90.9556 58.1649 90.5533 58.3208C89.9648 58.5489 90.2037 59.1928 89.5879 59.5164C89.1456 59.749 88.3954 59.7459 87.8964 59.9667C86.7071 60.4938 84.1736 61.6613 83.3699 60.2453C82.9625 62.6746 78.8025 61.1959 77.2627 61.0323C75.1538 60.8083 71.4806 59.8177 73.4369 56.9925ZM82.2946 32.1362C82.5929 31.8813 82.8917 31.8999 83.1905 32.1926C82.7745 29.9941 85.9919 28.9266 87.3955 27.9919C89.2573 26.7522 91.4488 24.3469 93.885 24.5373C93.4695 24.8454 93.0549 25.1535 92.6399 25.4616C93.2325 25.5384 93.8247 25.6152 94.4164 25.692C94.0826 26.1828 93.7484 26.6731 93.4137 27.1634C92.867 24.1479 90.0143 27.955 89.1887 28.5099C88.3573 29.0684 87.5281 29.4847 86.7893 30.1658C86.0572 30.8407 85.3965 32.0558 84.1863 31.4487C84.076 33.171 82.6924 32.7038 81.7356 33.6577C81.6956 33.0592 82.038 32.6361 82.2946 32.1362ZM94.934 23.5389C97.8789 22.4351 100.443 20.3943 103.218 18.9365C105.868 17.5438 108.573 16.2932 111.267 14.994C112.634 14.3346 115.138 12.6296 116.7 13.4985C118.809 14.6718 115.906 15.0503 115.152 15.4566C114.874 13.6498 113.897 15.2866 114.48 16.2918C112.871 15.5965 109.363 18.3167 107.828 19.0669C107.48 19.2369 107.636 19.335 107.241 19.535C107.144 19.584 106.137 19.8135 105.848 19.9103C104.403 20.3943 103.451 20.0098 102.829 21.7553C102.698 21.3445 102.568 20.9332 102.438 20.522C101.533 22.5546 98.7834 23.4444 97.0252 24.6464C96.572 24.9563 95.2778 26.1582 94.7029 25.9097C93.9028 25.5634 94.2238 23.8048 94.934 23.5389ZM148.058 29.6673C149.301 29.7496 148.103 30.3299 148.444 30.7134C148.405 30.6703 149.193 31.3424 149.09 31.1579C149.229 31.406 149.562 31.3969 149.733 31.9013C150.321 33.6358 147.753 35.4281 146.887 36.4124C145.204 38.3269 144.23 40.7513 142.476 42.6044C141.683 43.4415 140.895 44.0195 139.797 44.3317C139.028 44.5503 138.214 44.3162 137.508 45.056C136.939 45.6518 137.068 45.9903 136.439 46.3071C135.331 46.8656 134.843 46.3757 133.765 47.5827C132.837 45.0588 135.503 45.0629 136.893 43.6523C138.813 41.7051 140.917 39.7406 142.718 37.6575C144.317 35.8066 144.958 34.1839 145.717 31.9354C145.956 31.2265 146.217 29.7064 146.877 29.2615C147.905 28.569 147.288 29.616 148.058 29.6673ZM154.172 95.2321C157.433 91.5821 161.478 88.3048 165.863 86.1063C167.43 85.3201 169.661 84.2886 171.285 85.4987C172.878 86.6847 172.535 89.051 171.893 90.6605C171.278 90.4188 171.859 88.1566 171.54 87.5977C170.843 86.378 169.34 87.0256 168.317 87.4346C167.119 87.9135 166.05 88.4425 165.102 89.3118C164.717 89.664 163.98 89.9798 163.733 90.222C163.363 90.068 163.144 90.1802 163.079 90.5583C163.155 90.79 163.146 91.0182 163.051 91.2427C162.997 91.314 162.515 91.0214 162.447 91.08C162.134 91.3476 161.842 91.6625 161.534 91.9111C160.917 92.4105 160.392 92.6468 159.824 93.343C158.727 94.6886 157.276 95.477 156.174 96.7589C155.925 97.0489 155.627 97.7919 155.571 97.8568C155.013 98.5076 154.187 99.0224 153.559 99.7114C152.472 100.901 151.312 101.7 150.058 102.721C149.518 103.16 148.889 103.633 148.529 104.244C148.366 104.522 148.274 106.049 148.268 106.056C147.038 107.404 147.277 104.693 147.37 104.353C148.369 100.696 151.745 97.9495 154.172 95.2321ZM147.46 119.965C147.613 120.54 147.739 121.014 147.894 121.597C146.919 120.797 146.919 120.797 147.46 119.965ZM146.407 121.846C146.049 122.208 145.689 122.567 145.326 122.923C144.528 122.08 146.553 121.702 146.407 121.846ZM145.901 107.322C145.519 108.866 144.123 110.738 143.163 111.957C143.269 111.822 142.344 112.093 142.238 112.154C141.896 112.352 142.715 113.636 141.53 113.062C141.11 113.301 141.938 114.27 141.366 114.704C139.715 110.939 144.224 107.677 145.969 104.883C146.823 105.667 146.115 106.456 145.901 107.322ZM135.176 127.678C136.38 127.988 137.006 127.793 137.819 126.609C138.308 125.899 138.486 124.64 139.604 125.703L139.801 124.336C141.396 124.991 141.262 127.357 141.959 128.669C142.298 127.185 143.102 123.04 145.561 123.705C148.323 124.452 143.727 129.204 143.3 130.368C142.361 128.911 142.73 130.267 142.014 130.472C141.4 130.649 140.44 130.196 139.693 130.237C137.422 130.361 135.427 131.383 133.352 132.249C132.827 130.831 132.302 129.414 131.776 127.997C132.998 128.091 135.523 124.837 135.882 127.202C134.976 127.044 134.721 127.084 134.28 127.909C134.562 127.766 134.86 127.689 135.176 127.678ZM140.275 146.178C140.271 146.167 142.624 146.312 142.834 146.235C144.444 145.647 143.849 143.819 144.178 142.527C144.842 143.138 144.49 144.252 144.695 145.043C144.935 145.972 145.631 146.763 145.695 147.757C145.842 150.001 144.002 149.503 142.607 150.229C141.415 150.85 141.282 151.631 140.276 149.958C140.003 149.505 139.417 148.326 139.477 147.747C139.536 147.174 140.444 146.697 140.275 146.178ZM142.171 155.89L141.52 155.161C143.459 155.754 142.316 154.862 142.762 153.64C144.25 154.632 145.464 155.651 146.641 153.666L148.676 161.877C147.309 162.199 145.546 160.087 144.609 159.361C144.068 158.941 141.064 157.326 142.868 156.855C142.635 156.533 142.403 156.212 142.171 155.89ZM155.451 130.105C154.321 131.18 153.184 131.781 151.954 132.626C150.876 133.368 151.247 134.219 150.312 135.046C149.691 135.596 148.236 136.155 147.469 136.575C146.103 137.322 144.879 137.464 143.473 136.628C143.856 139.71 141.747 139.951 139.122 140.561C137.87 140.852 137.129 141.297 136.226 140.15C135.608 139.365 135.366 137.943 136.135 137.224C137.356 136.083 140.609 136.477 142.176 135.759C143.365 135.214 144.576 132.147 146.043 133.263C145.286 132.057 146.167 131.732 146.825 130.871C147.546 129.928 147.989 128.826 148.734 127.891C150.151 126.113 152.326 124.325 154.338 123.253C156.109 122.31 157.038 122.978 157.304 124.958C157.437 125.954 157.432 127.437 156.875 128.32C156.697 128.602 156.111 128.605 155.934 128.87C155.624 129.332 155.908 129.669 155.451 130.105ZM176.227 106.205C177.64 107.299 177.502 109.599 177.725 111.165C178.039 113.372 177.811 115.508 177.778 117.756C177.742 120.111 176.587 121.645 176.044 123.853C175.44 126.309 174.66 127.609 173.305 129.67C174.775 129.901 172.588 134.293 172.227 134.861C171.836 135.478 168.679 138.322 170.032 138.322C169.286 139.307 168.473 140.318 167.729 141.276C167.436 141.654 166.923 141.802 166.692 142.068C166.222 142.609 166.193 143.092 165.857 143.724C165.346 144.682 165.178 144.426 164.506 145.121C164.043 145.602 163.739 146.236 163.283 146.696C161.815 148.179 161.628 146.964 160.808 145.822C160.682 146.128 160.459 146.32 160.138 146.397C159.881 145.105 161.65 143.799 162.394 143.014C163.612 141.727 164.725 140.309 165.802 138.902C168.109 135.886 170.182 132.683 171.818 129.251C173.558 125.599 174.948 121.646 175.67 117.662C176.22 114.625 176.744 109.415 172.688 108.643C169.739 108.081 166.488 109.874 164.056 111.326C162.575 112.21 161.085 113.09 159.673 114.084C158.141 115.163 156.817 116.69 155.154 117.556C156.064 117.082 153.063 118.507 153.522 118.107C153.307 118.294 153.493 118.866 153.351 119.124C153.165 119.46 152.521 119.792 152.233 120.009C151.47 120.582 150.251 121.169 149.904 122.116C145.065 118.661 154.688 112.528 157.155 110.967C162.048 107.869 170.561 101.816 176.227 106.205ZM189.28 72.608C189.234 70.1204 191.258 66.7245 192.625 64.6959C193.294 63.703 194.363 63.7425 194.755 62.5715C194.981 61.8971 194.684 61.19 194.751 60.5129C194.842 59.5973 195.239 58.8629 195.697 58.0758C199.835 50.9609 204.863 44.6634 210.218 38.456C212.859 35.3958 215.362 32.218 218.21 29.3433C219.4 28.1427 222.597 23.8266 224.426 24.2583C225.395 24.4869 225.958 25.966 226.396 26.7208C227.118 27.9691 227.914 29.1384 228.792 30.2863C231.111 33.3168 233.786 35.9771 236.946 38.1251C238.918 39.4675 240.911 40.7722 242.84 42.1786C244.428 43.336 246.829 44.6593 247.963 46.2844C249.097 47.9099 247.432 49.2863 246.521 50.636C245.106 52.735 243.805 54.9098 242.384 57.0066C241.82 56.6003 241.965 55.7751 241.578 55.2548C241.235 54.7935 240.75 54.6058 240.276 54.3209C239.367 53.7761 238.475 53.1099 237.655 54.0228C236.218 55.6206 238.193 59.3973 240.322 58.9829C240.573 60.5597 236.322 63.1568 235.256 64.0247C231.987 66.6868 228.614 69.0012 224.295 69.242C222.547 69.3393 220.729 69.2066 219.068 68.6213C218.273 68.3409 217.393 67.956 216.783 67.3448C216.053 66.6132 215.867 65.5244 215.158 64.8C214.544 64.1715 213.7 64.0747 213.086 63.444C212.471 62.8128 212.168 61.8158 211.918 60.9983C211.431 59.401 211.338 57.7164 210.87 56.1154C210.588 55.1525 210.356 53.8651 209.437 54.7903C208.101 56.1345 208.772 60.3612 209.114 61.9716C209.603 64.2692 210.749 66.1215 211.951 68.0982C213.253 70.2427 213.734 72.2317 213.967 74.7129C214.404 79.3576 215.736 83.8146 217.808 87.9935C218.681 89.753 219.726 91.4076 220.667 93.1267C221.108 93.9288 222.093 96.6653 223.29 96.6508C225.202 96.6272 222.478 91.0482 222.101 90.1116C220.006 84.9243 218.006 79.4721 217.557 73.8554C220.559 74.6293 223.832 75.3636 226.94 74.8733C224.934 79.3639 227.03 83.835 226.773 88.4575C226.645 90.7755 226.553 92.914 226.6 95.2252C226.643 97.252 225.728 99.2778 224.937 101.111C223.367 104.75 221.39 109.24 218.474 112.028C216.036 114.358 212.775 114.541 209.589 114.004C202.343 112.782 197.581 107.208 194.54 100.877C192.586 96.8098 191.093 92.4682 190.165 88.0512C189.092 82.9394 189.375 77.793 189.28 72.608ZM198.691 38.1574C191.928 33.2609 201.755 27.7006 206.757 28.4576C207.93 28.6349 210.089 29.1202 209.979 30.6525C209.889 31.9049 207.802 33.3009 207 34.0739C204.715 36.2797 202.389 40.8344 198.691 38.1574ZM247.885 146.955C247.653 146.747 245.761 147.258 246.51 146.137C247.133 145.206 248.861 146.373 249.488 146.612C248.971 146.97 248.521 147.524 247.885 146.955ZM219.727 206.175C219.146 206.247 218.538 204.679 220.633 205.851C220.331 205.959 220.029 206.067 219.727 206.175ZM219.667 231.742C219.739 232.445 219.954 232.908 219.455 233.42C219.033 232.899 218.979 232.165 219.667 231.742ZM220.518 242.306C220.456 242.688 220.394 243.071 220.333 243.453C219.849 243.208 219.366 242.963 218.882 242.718C219.427 242.58 219.973 242.443 220.518 242.306ZM221.11 233.398C221.831 233.668 221.495 232.805 222.019 232.684C222.206 233.582 221.975 234.351 221.46 235.092C221.411 234.917 221.147 233.411 221.11 233.398ZM239.539 169.653C238.527 169.524 238.374 170.594 237.62 171.009C237.133 171.277 235.651 171.075 235.374 171.589C235.74 171.694 236.105 171.8 236.47 171.905C235.634 172.356 234.798 172.807 233.962 173.258C235.973 173.258 238.068 172.297 240.065 172.579C240.91 172.699 241.528 172.984 242.058 173.671C242.379 174.088 242.662 174.76 242.714 175.27C242.77 175.823 242.339 176.205 242.415 176.468C243.315 176.493 243.209 177.97 243.007 178.572C242.569 179.878 240.828 181.922 239.268 181.094C239.921 182.021 239.755 182.55 238.79 183.087C238.877 182.781 238.942 182.245 238.449 182.298C238.322 182.812 238.371 183.626 237.951 184.013C237.482 184.447 237.064 183.94 236.615 184.222C236.083 184.557 236.243 185.081 235.825 185.444C235.272 185.923 235.193 185.583 234.532 185.676C233.53 185.818 234.169 185.195 233.367 186.007C233.09 186.287 233.137 187.015 232.687 187.425C231.823 188.211 229.519 189.031 228.691 188.022C226.702 191.178 220.739 191.935 217.964 189.444C213.537 185.472 221.791 177.393 224.516 174.833C227.251 172.264 230.289 170.044 233.363 167.902C235.109 166.685 236.902 165.581 238.732 164.496C239.861 163.827 241.278 162.605 242.666 162.722C243.91 162.828 244.973 163.794 246.283 163.985C247.23 164.123 249.071 164.351 247.875 165.637C247.316 166.238 245.121 167.21 244.374 167.356C243.935 167.442 243.472 167.277 243.037 167.366C242.3 167.518 241.795 168.14 240.993 168.061C241.247 169.251 240.784 169.811 239.539 169.653ZM252.639 125.469C252.64 126.4 250.942 126.168 250.587 125.852C250.003 125.331 249.982 123.776 249.766 123.068C250.753 123.317 252.638 124.226 252.639 125.469ZM238.958 94.7508C242.526 91.8166 246.277 89.1264 250.242 86.757C251.662 85.9086 253.667 84.1972 255.43 84.4108C256.17 84.5008 257.699 85.351 257.142 86.2885C257.038 86.4639 256.215 86.5343 255.961 86.6616C255.672 86.8056 255.446 87.2028 255.179 87.3991C253.326 88.7592 251.1 89.5949 249.241 90.9877C247.714 92.1315 246.289 93.4112 244.645 94.3927C243.067 95.3339 241.419 95.9296 239.921 96.9721C239.951 96.9512 237.973 97.6628 238.361 97.7923C236.625 97.2111 238.459 95.1621 238.958 94.7508ZM262.743 93.6579C264.862 92.8127 266.936 91.7871 269.155 91.219C270.262 90.9355 271.398 90.7223 272.544 90.85C272.739 90.5088 272.999 90.4333 273.323 90.6237C273.576 91.0127 273.909 91.3113 274.323 91.5199C274.955 92.0061 277.283 92.6418 276.818 93.7156C276.51 94.4259 274.177 94.485 273.536 94.6445C271.606 95.1257 269.806 96.2082 267.817 96.474C267.631 96.499 267.021 96.2727 267.014 96.2741C266.238 96.4436 265.593 97.2493 264.926 97.6355C263.491 98.4667 261.429 98.6062 260.399 100.041C263.736 102.304 266.631 100.059 269.564 98.3503C271.322 97.327 273.208 96.5885 275.128 95.9323C276.132 95.5897 277.145 95.2334 278.162 94.9326C278.583 94.779 279.015 94.6686 279.46 94.6009C279.873 94.5186 280.168 94.669 280.347 95.0526C281.577 95.0117 281.682 94.2396 282.422 95.6797C283.466 97.7101 281.869 97.6069 280.369 97.8564C278.288 98.2017 276.172 98.9797 274.122 99.4955C273.649 99.6146 269.502 100.577 269.497 100.611C269.309 101.92 281.21 100.707 282.231 100.511C284.034 100.164 285.968 99.1783 287.834 99.416C289.267 99.5982 292.532 101.702 290.246 103.1C289.796 100.944 288.251 102.725 287.444 103.452C286.37 104.421 284.831 104.327 283.357 104.707C281.342 105.225 276.183 107.169 274.751 104.691C275.204 106.863 266.98 105.759 265.85 105.687C264.748 105.617 263.325 105.851 262.26 105.537C261.565 105.332 261.178 104.88 260.524 104.778C260.364 104.95 260.172 105.068 259.949 105.13C259.617 104.963 259.318 104.749 259.051 104.491C256.848 103.478 253.441 102.918 254.665 99.6909C255.819 96.6476 259.944 94.7749 262.743 93.6579ZM283.386 95.5388C283.441 95.3493 283.496 95.1598 283.551 94.9699C283.557 95.5511 284.942 95.7992 284.783 96.5522C284.428 98.2195 282.829 95.7142 282.692 95.4411C282.924 95.4738 283.155 95.5061 283.386 95.5388ZM291.842 98.309C292.003 98.992 293.845 100.446 293.388 100.782C292.662 99.7936 290.655 100.242 291.842 98.309ZM260.774 160.629C261.449 159.291 263.487 161.57 263.272 159.285C264.38 159.385 263.688 160.229 265.016 159.858C265.514 159.719 265.851 159.167 266.457 159.04C266.619 159.006 267.318 159.061 267.559 159.054C268.358 159.03 271.488 158.94 269.334 157.892C270.54 157.094 270.688 157.499 271.777 158.23C271.497 156.719 273.099 157.577 273.845 157.765C273.313 156.903 274.632 155.986 275.061 155.404C274.907 156.301 274.988 157.306 276.286 156.732C276.609 156.589 276.536 155.955 276.793 155.851C277.263 155.662 277.525 156.007 277.694 155.987C277.859 155.969 278.208 156.062 278.557 155.93C279.01 155.76 278.791 155.152 279.365 155.061C279.739 155.003 280.012 155.553 280.468 155.557C280.702 155.56 281.093 155.321 281.271 155.334C281.303 155.336 281.526 154.798 281.8 154.785C282.2 154.766 282.363 155.839 282.509 156.048C283.21 157.043 284.143 157.692 285.218 158.223C283.273 160.008 279.348 159.819 276.902 160.421C275.577 160.747 274.447 161.217 273.234 161.823C272.942 162.014 272.69 162.247 272.479 162.524C272.307 162.41 272.135 162.296 271.964 162.182C271.299 162.223 270.671 161.894 269.923 162.02C267.613 162.41 265.804 164.142 263.457 164.528C262.402 164.701 261.535 164.943 260.848 164.028C260.245 163.226 260.345 161.483 260.774 160.629ZM257.607 149.962C258.13 150.405 257.501 151.848 258.514 151.691C259.233 151.58 259.09 150.463 259.655 150.226C260.397 149.916 260.845 150.653 261.542 150.584C262.842 150.456 262.768 149.32 261.669 148.821C262.811 148.52 263.177 149.871 264.189 149.859C265.517 149.843 265.2 148.275 266.33 148.015C266.82 147.902 266.656 148.621 266.974 148.711C267.609 148.889 268.052 148.583 268.614 148.313C269.117 148.071 269.476 147.605 270.026 147.447C270.276 147.375 270.912 147.507 271.095 147.373C271.465 147.103 271.797 146.052 272.161 145.912C272.086 145.941 273.281 146.54 273.452 146.596C273.347 147.04 273.104 147.093 272.723 146.755C272.723 147.757 275.505 148.069 274.934 146.83C276.439 147.454 275.319 147.775 275.168 148.645C275.108 148.995 274.905 148.985 274.965 149.355C274.993 149.526 275.782 149.379 275.772 149.611C275.706 151.107 270.942 151.566 270.04 151.698C268.172 151.971 266.404 152.431 264.603 152.997C263.262 153.418 260.951 154.624 259.524 154.549C257.472 154.442 257.204 151.762 257.607 149.962ZM253.022 134.702C252.521 133.038 254.127 129.602 256.217 130.031C256.731 130.137 256.858 130.563 257.257 130.752C257.813 131.016 258.719 130.877 259.202 131.15C260.284 131.763 259.738 133.325 260.823 133.89C259.111 134.305 253.817 137.346 253.022 134.702ZM255.003 141.166C255.74 140.769 256.936 140.718 257.439 139.955C257.689 140.129 258.163 141.182 258.612 141.021C258.822 140.946 259.039 140.375 259.024 140.375C259.424 140.364 259.503 139.822 260.115 139.883C260.676 139.939 261.305 140.614 261.805 140.866C261.719 139.192 262.147 139.032 263.504 138.136C263.801 137.94 264.05 137.202 264.324 136.904C264.061 138.661 264.723 138.671 266.125 138.935C267.882 139.266 268.977 140.21 269.681 141.909C268.184 141.617 266.252 141.969 265.662 143.579C264.466 141.394 260.123 144.41 258.717 145.027C257.674 145.486 256.461 146.102 255.586 145.034C254.97 144.281 255.323 143.376 255.336 142.707C255.34 142.497 255.557 142.485 255.537 142.173C255.511 141.774 254.992 141.614 255.003 141.166ZM270.992 175.53C270.596 175.68 268.561 175.764 268.547 175.089C268.537 174.493 272.14 175.094 270.992 175.53ZM267.685 173.347C266.145 174.297 264.422 170.949 263.855 169.984C265.471 170.191 266.26 168.839 267.212 167.811C268.117 169.796 269.492 168.747 270.938 168.084C272.644 167.302 274.513 167.296 276.26 166.668C276.806 166.473 277.308 166.181 277.841 165.957C278.269 165.797 278.697 165.632 279.122 165.464C279.424 165.191 279.532 164.855 279.444 164.457C279.301 164.123 279.398 163.911 279.737 163.824C280.139 163.944 280.549 164.014 280.969 164.033C281.642 163.899 282.61 163.263 281.797 162.578C282.668 161.787 283.541 162.574 284.379 162.92C284.18 162.352 283.982 161.783 283.782 161.215C284.198 161.392 285.433 163.118 285.559 163.109C286.357 163.049 286.274 161.977 286.733 161.544C286.998 161.871 287.073 164.307 288.114 163.487C288.559 163.136 287.601 161.941 287.365 161.668C288.556 161.937 289.595 163.36 289.917 164.464C289.352 164.546 288.829 164.432 288.349 164.122C288.042 165.66 290.887 165.037 291.347 165.84C292.249 167.413 286.383 168.506 285.619 168.652C284.089 168.943 282.284 169.052 280.882 169.73C279.539 170.38 279.221 170.566 277.652 170.687C275.86 170.826 274.112 171.417 272.38 171.877C270.875 172.276 269.019 172.524 267.685 173.347ZM300.426 117.047C301.84 116.538 306.605 113.894 307.818 115.07C307.69 114.946 308.692 117.019 308.682 116.888C308.768 117.967 308.742 118.401 307.415 118.917C306.465 119.287 305.638 118.501 304.783 118.813C303.845 119.156 304.501 119.763 304.018 120.187C303.489 120.652 302.468 120.853 301.809 121.057C300.196 121.555 298.57 121.972 296.965 122.509C293.699 123.602 290.24 124.619 286.883 125.392C284.375 125.97 280.117 127.405 277.806 125.71C277.58 126.673 277.029 126.542 276.263 126.682C275.662 126.792 274.576 127.09 274.042 127.105C273.153 127.131 270.683 126.898 271.023 125.65C270.929 125.994 272.945 124.818 272.596 124.745C273.452 124.925 273.174 124.494 273.875 124.254C274.791 123.941 275.749 123.958 276.684 123.626C279.041 122.79 281.018 121.705 283.506 121.181C289.189 119.984 294.943 119.022 300.426 117.047ZM72.6045 245.919C72.144 245.931 71.7857 244.622 73.1866 245.557C72.9927 245.678 72.7988 245.798 72.6045 245.919ZM61.538 244.225C60.9118 244.385 60.6621 244.036 60.7897 243.176C61.6629 242.831 61.9122 243.18 61.538 244.225ZM52.9946 242.471C52.8343 241.705 53.4019 241.533 53.9164 241.189C53.8646 242.204 53.8646 242.204 52.9946 242.471ZM31.4983 236.167C30.6323 235.976 29.4785 235.129 29.28 236.552C29.1352 236.222 28.3959 234.673 28.7133 234.314C28.8791 234.126 29.5066 234.994 29.4399 234.908C30.1978 233.374 31.5042 235.226 32.2344 235.773C31.9892 235.905 31.7435 236.036 31.4983 236.167ZM256.649 66.6218C256.948 65.9892 257.301 65.7884 257.706 66.0197C257.069 67.4993 254.913 68.3014 256.649 66.6218ZM271.63 52.7327C272.164 53.7347 271.361 54.1582 270.787 54.9912C271.123 54.0928 271.355 53.4702 271.63 52.7327ZM336.739 150.545C338.665 150.545 342.768 149.527 343.93 151.731C344.699 150.234 345.572 153.042 346.239 153.492C346.314 153.543 346.795 153.175 347.018 153.311C347.355 153.515 347.646 154.07 347.839 154.401C348.42 155.397 348.671 156.581 348.993 157.677C345.628 157.677 342.179 156.893 338.817 156.608C336.611 156.421 334.447 156.416 332.238 156.535C331.798 156.558 330.927 156.413 330.551 156.496C330.17 156.58 329.478 157.358 329.057 157.233C329.711 158.46 338.08 161.432 338.718 160.072C337.961 159.614 336.281 159.263 336.283 158.156C336.284 156.916 337.859 156.918 338.693 156.954C340.519 157.034 343.576 157.642 344.324 159.542C344.645 160.356 344.743 162.406 344.391 163.193C344.164 163.7 343.779 164.31 343.168 164.414C342.918 164.456 342.557 164.123 342.519 164.131C341.267 164.397 338.949 165.403 337.583 163.984C336.598 165.26 331.853 163.866 330.401 163.385C327.86 162.544 324.362 161.388 322.819 159.016C320.939 156.125 324.763 153.681 326.958 152.506C329.959 150.9 333.388 150.547 336.739 150.545ZM349.558 157.23C350.149 157.397 350.739 157.564 351.33 157.731C351.172 158.767 348.842 157.947 349.558 157.23ZM367.409 194.892C367.59 190.74 366.391 187.084 365.698 183.07C365.527 182.074 365.702 180.334 364.946 179.516C364.225 178.733 362.614 179.37 362.55 177.986C361.839 178.819 361.911 178.993 361.035 178.035C361.195 178.446 361.218 178.864 361.105 179.289C360.561 178.978 358.591 177.942 358.757 179.358C357.137 178.999 357.606 177.986 356.682 177.212C356.551 177.102 356.024 177.492 355.818 177.326C355.447 177.024 355.263 176.751 354.949 176.363C354.551 176.844 354.009 177.193 353.522 177.573C353.239 176.957 352.688 176.504 352.026 176.354C352.645 177.65 354.176 179.329 352.077 180.066C350.824 180.506 348.772 179.967 347.445 180.07C342.527 180.451 337.14 179.378 332.386 178.206C327.501 177.002 322.561 175.302 318.168 172.817C317.232 172.287 316.642 171.66 315.835 171.003C315.052 170.364 314.482 170.263 313.539 169.854C311.843 169.119 310.292 167.94 309.002 166.626C306.228 163.8 303.65 160.104 304.423 155.966C305.193 151.842 308.026 148.62 311.057 145.904C314.637 142.697 318.678 140.019 322.968 137.86C324.886 136.895 329.792 133.269 331.687 135.391C332.898 136.746 332.217 138.475 330.562 138.776C330.154 138.851 329.728 138.577 329.315 138.764C328.72 139.035 328.929 139.355 328.684 139.581C328.257 139.973 327.804 140.585 327.167 140.925C324.943 142.111 322.794 143.051 320.668 144.497C319.688 145.162 318.745 145.449 317.881 146.03C317.022 146.607 316.827 147.563 315.671 146.974C316.083 148.655 313.613 150.455 312.644 151.486C311.144 153.081 309.346 155.116 310.046 157.476C311.416 162.096 317.606 165.605 321.567 167.635C326.51 170.169 331.962 172.187 337.466 173.021C340.202 173.436 343.031 173.693 345.787 173.956C347.934 174.161 351.228 173.41 352.772 175.345C352.82 173.089 359.861 173.288 361.359 173C358.355 162.723 352.455 153.585 346.149 145.049C343.054 140.858 340.014 136.548 336.486 132.706C332.623 128.501 328.211 124.742 324.018 120.872C315.794 113.282 306.493 106.508 297.029 100.54C287.586 94.5868 277.807 88.7274 267.462 84.4826C255.647 79.6348 243.208 76.4461 230.755 73.7304C232.444 71.5764 235.192 70.5258 237.355 68.9498C238.112 68.3982 239.136 67.074 240.119 66.8931C241.185 66.6968 242.023 67.8438 242.782 68.4195C244.958 70.0718 246.464 69.3702 248.957 69.2706C250.448 69.2111 253.981 70.0423 254.61 68.0232C255.446 69.1375 254.233 70.0309 253.613 70.848C254.064 71.4787 254.429 70.8243 254.875 70.7257C255.013 70.6117 255.15 70.4971 255.287 70.3831C255.509 70.0623 255.709 70.0604 255.886 70.3767C256.152 70.7775 256.42 70.6889 256.69 70.1104C256.764 70.0641 256.838 70.0173 256.912 69.9709C257.234 69.7991 257.545 69.5274 257.845 69.3134C260.11 67.6933 262.129 66.3132 264.63 65.1199C266.73 64.1184 265.601 62.202 266.985 60.8488C267.299 60.5425 267.826 60.6961 268.161 60.4366C268.489 60.1817 268.538 59.8926 268.778 59.6195C269.353 58.9629 268.668 58.2008 270.136 59.0047L269.606 56.0232C272.484 58.817 272.473 50.7773 272.866 49.5876C272.814 49.7448 273.124 48.5274 273.124 48.5379C273.208 46.1253 273.538 44.3767 270.714 44.2367C271.783 43.5637 272.11 44.8779 272.604 43.5174C272.851 42.8357 272.079 41.6642 273.309 42.1036C273.568 40.6549 273.312 39.4825 272.99 38.0747C272.659 36.6337 272.853 35.6721 272.868 34.2311C272.885 32.5966 272.12 30.9538 271.876 29.3442C271.684 28.0837 271.882 26.0955 270.253 26.5586C270.024 26.2001 270.828 25.0972 270.796 24.5518C270.745 23.7048 269.826 22.8441 269.566 22.0307C269.183 22.426 268.644 22.5578 268.123 22.3792C268.612 21.2741 268.153 20.9028 267.685 19.9499C267.416 19.4041 267.578 18.8015 267.004 18.4104C266.675 18.1859 266.113 18.564 265.856 18.3008C265.302 17.7373 265.507 16.9898 265.126 16.2473C264.649 15.3162 263.559 14.605 262.808 13.9061C258.584 9.97755 253.997 6.97515 248.379 5.4401C242.711 3.89141 236.103 3.33656 230.455 5.12291C228.197 5.83681 226.193 5.76365 224.16 7.09694C223.502 7.52955 223.431 7.41367 223.096 8.13485C223.019 8.30299 223.72 8.7506 223.291 9.02553C222.824 9.32409 222.309 8.71697 222.071 8.21301C219.131 10.3425 216.376 13.1813 214.702 16.4363C213.038 19.6708 212.886 23.4708 212.25 26.9858C209.32 23.6357 205.357 22.0298 201.048 23.6403C197.292 25.0435 194.381 28.1282 193.647 32.1244C193.198 34.5606 193.688 37.0277 194.794 39.2257C195.272 40.1755 195.851 41.2271 196.73 41.8664C197.425 42.3717 198.616 42.3009 198.943 43.2124C199.445 44.6089 196.547 47.6249 195.795 48.8473C194.434 51.0595 193.169 53.3439 192.206 55.7601C188.755 50.8809 185.451 45.5518 181.526 41.053C177.822 36.8068 173.406 32.9987 169.075 29.4097C160.087 21.9607 150.74 14.9626 140.686 9.02825C131.323 3.50242 120.015 0.434584 109.103 1.5193C98.4424 2.57948 90.2804 9.32681 83.4121 17.1089C70.2059 32.0717 62.1175 53.3984 61.3273 73.3164C61.0898 79.2999 61.5453 85.2051 63.022 91.0086C63.7254 93.772 63.6233 96.4899 64.032 99.2887C64.4933 102.446 65.2912 105.592 66.0627 108.685C69.0016 120.467 72.7462 132.24 76.948 143.631C79.1326 149.555 81.776 155.346 85.352 160.57C87.0036 162.983 89.1433 164.871 90.9207 167.162C92.6449 169.384 93.1004 172.112 93.4795 174.838C94.3886 181.376 94.9917 187.942 95.5384 194.518C95.7705 197.305 96.0416 200.067 96.4103 202.834C96.7318 205.247 95.923 205.129 93.8946 205.948C94.306 203.78 84.6146 205.255 83.6996 205.403C82.7037 205.564 81.6493 205.566 80.8651 205.695C79.9882 205.837 79.1299 206.044 78.12 206.015C76.6356 205.972 73.856 205.593 73.2893 207.489C72.8992 205.291 70.3226 207.695 72.229 207.286C70.2722 207.506 68.2755 207.141 66.2952 207.326C64.0256 207.536 61.7365 207.737 59.4828 208.079C57.9139 208.317 56.4167 208.922 54.845 209.097C52.8338 209.322 50.735 209.301 48.7042 209.48C41.2138 210.141 33.45 211.776 26.169 213.648C24.5197 214.072 22.6247 214.374 21.049 215.054C20.6271 215.236 20.2475 215.643 19.8433 215.8C19.1658 216.061 19.2585 215.881 18.6568 216.001C15.0517 216.722 11.3326 217.9 7.72791 218.824C5.7285 219.337 2.47622 219.8 0.845273 221.196C0.11417 221.821 -0.52475 222.931 0.646832 223.641C1.58274 224.209 2.91852 223.303 3.67596 222.813C3.00117 224.573 1.7285 225.45 2.41583 227.452C2.95848 229.034 4.18365 230.984 6.06862 229.964C6.3211 230.551 6.42328 231.72 7.16664 231.936C7.83462 232.13 8.31824 231.283 8.9726 231.482C9.20692 231.554 9.11792 231.997 9.32771 232.113C9.68918 232.312 10.0556 232.396 10.4698 232.537C10.8258 232.658 11.3989 232.906 11.7703 232.932C12.006 232.949 12.5614 232.545 12.5596 232.545C13.1008 232.628 13.3919 233.664 13.7815 233.964C14.2874 234.353 14.7052 234.441 15.3387 234.582C16.6555 234.875 18.353 235.376 19.2221 234.027C19.0232 234.991 20.3324 234.896 20.91 235.018C20.846 234.511 20.5658 234.046 20.1335 233.767C21.425 233.853 20.9014 235.137 21.8559 235.477C22.5362 235.718 22.459 235.105 22.9794 235.037C23.6651 234.947 24.1855 235.445 25.2562 234.986C25.4883 236.018 25.5732 237.058 26.8397 237.212C27.583 237.303 29.3164 235.96 29.2183 237.077C30.8789 236.59 31.5092 236.92 32.377 238.384C32.5237 237.485 33.2334 237.746 33.8846 237.69C34.9168 237.602 34.9431 237.685 35.7433 237.101C35.8164 237.047 36.4457 235.605 36.7255 236.501C36.8513 236.903 36.0198 237.848 35.7119 238.089C36.0943 238.282 37.3471 238.96 37.8289 238.835C38.2458 238.727 38.2472 238.014 38.748 237.978C38.6254 238.388 38.5033 238.798 38.3802 239.208C39.3547 239.35 40.1689 238.697 40.9386 238.219C41.6725 240.076 43.77 239.03 44.9107 240.427C45.5142 241.166 45.5423 241.728 46.6921 241.921C47.8687 242.119 48.8963 241.602 49.8962 242.573C49.5793 241.971 48.7896 241.471 49.5743 240.823C50.1083 241.582 50.3839 242.495 50.9997 243.2C51.0846 242.842 51.1695 242.483 51.2545 242.124C52.8597 243.842 54.8805 243.857 56.9366 244.81V243.553C58.4088 245.801 58.4874 244.378 60.2461 243.46C60.1267 244.121 60.0068 244.782 59.8874 245.443C61.153 245.348 62.3354 246.848 63.3744 245.573C64.002 246.627 64.7626 246.108 65.7912 246.443C66.376 246.633 66.8115 247.209 67.3805 247.418C68.2338 247.731 68.4885 247.716 69.2918 247.988C70.0061 248.23 70.4121 248.701 71.3062 248.852C71.887 248.95 72.4138 248.942 72.9696 248.916C73.1844 248.905 73.1135 248.422 73.5908 248.534C74.3287 248.709 74.8782 249.635 75.4095 250.11C76.2087 248.1 78.4465 250.793 79.5282 251.151C79.6317 250.636 79.6131 250.015 79.9859 249.591C80.4237 250.551 80.5908 251.358 81.4994 251.976C82.0239 252.333 82.7941 252.588 83.3998 252.718C83.7827 252.801 84.4783 252.702 84.719 252.82C85.1295 253.021 85.2807 253.559 85.6953 253.609C85.9392 253.639 86.3007 252.997 86.4832 253.047C87.3187 253.275 87.7828 254.291 88.6266 254.84C91.1373 256.475 94.2969 256.633 97.0942 256.992C97.7962 257.081 97.8979 256.89 98.4683 257.302C98.7726 257.522 98.6345 258.192 99.0087 258.38C100.419 259.087 100.42 257.578 100.715 256.64C101.182 257.256 101.262 258.069 101.9 258.559C102.248 258.549 102.597 258.557 102.945 258.583C103.141 258.807 103.27 259.065 103.33 259.358C104.175 259.929 105.131 259.731 106.004 260.159C106.29 260.3 106.797 261.149 107.149 261.393C107.78 261.83 108.755 262.064 109.476 262.254C110.987 262.652 113.154 262.123 114.053 263.702C115.247 262.421 114.785 263.95 115.596 264.272C116.074 264.461 116.794 263.707 117.325 263.782C118.281 263.917 118.625 264.952 118.931 265.705C119.513 265.575 119.114 263.927 119.097 263.566C119.821 263.48 119.981 265.387 120.106 265.806C121.248 265.255 119.374 263.543 120.602 262.993C120.489 264.453 121.651 265.654 119.576 265.863C119.862 266.742 126.556 267.718 127.021 266.942C127.124 268.377 128.087 267.037 128.442 266.546C128.482 267.383 128.197 268.57 129.135 268.959C129.773 269.223 131.21 268.54 131.461 267.915C131.746 268.87 132.225 268.839 132.82 269.446C133.228 269.862 133.498 270.585 133.926 270.934C134.715 271.576 136.182 271.478 137.101 271.334C138.9 271.054 138.687 270.709 139.328 272.579C139.473 271.869 139.927 270.385 140.719 271.488C141.223 272.19 140.15 273.735 139.84 274.351C140.533 273.97 141.221 273.518 142.009 273.354C142.053 273.597 142.093 274.113 141.977 274.338C142.001 274.293 142.842 274.857 143.154 275.013C143.079 274.976 143.4 273.571 143.391 273.616C144.501 274.302 143.731 275.612 144.714 276.288C144.967 276.463 145.563 276.259 145.87 276.365C146.405 276.55 146.867 277.052 147.342 277.345C146.963 276.836 147.017 275.981 147.043 275.394C147.285 275.527 147.457 276.027 147.701 276.067C147.793 276.082 148.749 276.209 148.743 276.204C149.738 276.901 149.533 276.989 148.679 277.827C148.984 278.307 150.259 277.473 150.605 277.335C150.677 277.522 150.695 278.204 150.831 278.326C150.913 278.527 150.996 278.729 151.079 278.931C151.333 278.741 151.607 278.677 151.898 278.741C152.083 278.805 153.522 279.39 153.619 279.19C153.305 279.088 153.019 278.932 152.764 278.722C153.594 277.974 154.141 277.577 154.906 278.656C155.002 278.792 154.671 279.28 154.769 279.457C155.135 280.117 155.886 280.642 156.396 281.18C156.607 280.437 156.116 278.579 157.288 278.647C158.225 278.701 158.937 280.972 158.613 281.678C158.986 281.27 161.209 280.866 161.628 280.993C162.815 281.353 162.482 282.451 163.942 280.842C164.937 281.529 164.06 281.79 164.239 282.628C164.502 282.683 164.751 282.618 164.987 282.433C164.811 285.994 167.437 283.273 169.142 283.817C169.811 284.031 169.982 284.791 170.701 285.013C171.081 285.13 171.504 284.853 171.873 284.92C172.169 284.878 172.464 284.826 172.756 284.764C173.127 284.578 173.301 284.785 173.278 285.387C173.874 285.696 173.648 285.817 174.345 285.877C174.794 285.916 175.206 285.449 175.716 285.528C176.596 285.667 176.48 286.342 177.042 286.695C177.548 287.013 178.118 287.003 178.741 286.942C179.059 286.91 179.95 286.501 180.057 286.5C180.723 286.49 180.362 286.349 181.161 286.921C181.783 287.367 182.044 287.656 182.808 287.861C183.684 288.096 185.238 288.61 185.827 287.977C186.623 289.171 187.247 288.294 188.298 288.374C188.835 288.414 188.921 288.624 189.399 288.708C190.175 288.843 191.143 288.726 191.968 288.991C193.268 289.409 193.415 289.619 194.743 289.675C194.983 289.581 195.223 289.487 195.462 289.394C195.534 289.794 195.722 290.121 196.028 290.374C196.771 290.53 197.259 290.154 197.872 289.743C198.329 291.167 199.812 291.291 201.079 291.479C203.125 291.781 205.081 291.946 207.054 292.619C208.72 293.187 210.389 293.825 211.992 294.552C213.402 295.193 214.733 296.15 216.329 295.701C219.945 294.682 223.448 290.968 226.473 288.835C230.056 286.31 233.92 284.228 237.664 281.958C252.567 272.917 268.312 265.27 283.007 255.893C291.03 250.774 298.474 244.691 307.089 240.55C305.863 245.622 303.775 250.77 304.152 256.08C304.304 258.22 304.934 260.748 306.592 262.242C308.642 264.089 310.926 262.913 312.887 261.593C317.089 258.766 319.89 254.641 323.035 250.767C326.755 246.185 329.64 241.262 332.371 236.039C333.025 236.958 332.528 238.498 332.537 239.518C332.55 240.818 332.901 242.072 333.503 243.233C335.059 246.229 338.02 246.956 340.695 244.903C345.843 240.951 348.831 233.915 351.59 228.248C353.163 231.177 355.397 234.864 359.175 232.772C362.293 231.046 364.125 227.188 365.079 223.921C367.863 214.383 366.981 204.668 367.409 194.892Z" fill="#575757" fill-opacity="0.8"/>
<path fill-rule="evenodd" clip-rule="evenodd" d="M362.68 137.603C362.324 136.739 362.168 136.88 362.822 136.042C363.332 136.545 362.924 136.959 362.68 137.603ZM378.437 189.914C377.437 187.069 378.055 183.98 377.448 181.062C377.169 179.723 376.729 178.425 376.57 177.062C376.5 176.457 375.962 173.734 376.328 173.306C375.2 172.622 375.197 172.117 374.936 170.777C375.338 170.35 375.288 169.986 374.784 169.684C374.456 169.286 374.126 168.887 373.797 168.489C375.236 169.193 374.385 167.391 374.238 166.353C374.122 165.532 374.044 164.676 373.77 163.889C373.434 162.922 372.686 162.433 374.242 162.433C373.73 161.85 372.964 161.249 372.709 160.535C372.342 159.507 372.947 158.149 372.199 157.242C371.782 156.736 369.63 156.538 370.008 155.444C370.2 154.887 371.072 155.303 371.341 154.913C372.402 153.378 369.271 152.743 369.118 152.09C368.919 151.244 370.05 151.055 370.119 150.264C370.187 149.489 368.984 148.217 368.666 147.524C368.233 147.63 367.758 148.316 367.262 147.988C367.168 147.926 367.309 145.245 367.196 144.89C367.086 144.54 366.859 143.612 366.778 143.44C366.457 142.758 365.539 142.426 365.393 141.62C365.306 141.139 367.188 140.411 365.029 140.389C365.805 139.021 364.384 138.19 363.867 137.021C363.202 135.518 362.81 133.895 362.127 132.384C361.463 130.916 360.721 129.523 359.763 128.224C358.897 127.049 358.522 125.918 357.83 124.677C357.691 124.568 357.553 124.459 357.414 124.35C356.837 124.433 356.651 124.17 356.858 123.56C356.417 122.905 356.088 122.206 355.699 121.522C355.246 120.727 354.635 120.079 354.167 119.306C353.547 118.282 353.363 117.126 352.662 116.098C351.799 114.833 350.829 113.718 350.03 112.406C349.028 110.763 347.918 109.741 346.658 108.468C346.058 107.862 345.986 106.348 345.251 105.487C344.45 104.55 343.659 104.296 343.105 103.065C342.383 101.464 341.323 100.7 340.292 99.3161C339.441 98.1746 339.025 96.8626 338.088 95.7584C337.282 94.81 336.367 93.9434 335.507 93.0441C334.42 91.9085 333.618 90.5284 332.488 89.4487C332.651 89.6045 331.504 88.6948 331.561 88.7238C331.307 88.5943 330.488 88.4903 330.608 88.5607C328.901 87.5569 326.763 83.8828 324.195 85.8296C322.844 86.8534 323.492 88.7311 324.435 89.7508C324.84 90.1889 326.945 92.3484 327.399 91.4377C327.89 92.1339 329.402 95.4994 330.659 94.5351C330.531 95.6852 331.197 95.3035 331.637 96.081C331.926 96.5941 331.785 96.8458 331.996 97.6465C332.576 99.8478 334.788 101.998 335.967 103.917C338.9 108.695 342.135 113.226 345.071 118.008C347.869 122.567 351.002 126.892 353.686 131.512C356.739 136.765 360.542 141.724 362.843 147.387C362.92 147.577 363.559 147.878 363.718 148.164C363.994 148.661 363.935 149.52 364.113 150.082C364.73 152.033 365.73 153.953 366.87 155.568C367.87 156.986 367.943 158.912 368.631 160.575C369.601 162.918 370.626 165.237 371.569 167.592C373.036 171.258 374.03 174.772 375.044 178.599C375.701 181.079 376.224 183.558 376.433 186.119C376.625 188.475 376.673 190.928 377.544 193.158C378.138 192.24 378.837 191.051 378.437 189.914Z" fill="#575757" fill-opacity="0.8"/>
<path fill-rule="evenodd" clip-rule="evenodd" d="M42.7941 240.383C41.7397 240.17 40.7475 239.885 40.5241 238.674C40.371 239.245 40.2185 239.816 40.0654 240.387C41.3492 240.678 42.6334 240.97 43.9171 241.26C43.6174 240.732 43.3985 240.505 42.7941 240.383Z" fill="#575757" fill-opacity="0.8"/>
<path fill-rule="evenodd" clip-rule="evenodd" d="M45.6235 41.5524C45.7034 41.2107 45.8069 40.8758 45.9345 40.5491C46.0213 40.8676 46.4463 41.5565 46.1988 41.8569C45.8837 42.2382 45.5649 42.0223 45.6235 41.5524ZM50.7925 31.7105C51.1385 31.8632 51.8874 31.8927 52.3169 32.0217C51.2026 32.981 51.0064 32.6988 49.5655 32.5875C49.5015 31.6169 49.8957 31.3156 50.7925 31.7105ZM41.1333 55.7397C41.2827 55.7437 41.4326 55.7474 41.5829 55.751C41.592 55.3284 41.5811 54.9062 41.5493 54.4845C43.0687 54.8167 42.2086 52.1597 41.7314 51.6089C43.2136 51.6585 43.9356 46.9624 44.4051 46.0576C44.822 45.2542 45.2943 44.9434 45.599 43.9636C45.8655 43.1061 46.1539 42.3345 46.5385 41.5234C47.4222 39.6584 48.5815 37.9647 48.3676 35.7912C49.1164 37.4222 49.7749 35.7939 50.2499 35.0141C51.015 33.7577 52.8818 32.1544 53.0803 30.6621C53.2556 29.3484 52.2802 29.2788 52.856 28.0605C53.4381 26.8272 53.9167 26.9508 54.9367 26.5564C55.6151 26.2937 55.7499 26.6127 56.2286 25.7557C56.5387 25.2008 56.4293 24.7873 56.8266 24.3324C56.9906 24.4751 57.1772 24.5342 57.3861 24.5096C57.7085 24.0838 57.9201 23.6094 58.0205 23.0863C58.2834 22.3802 58.4105 21.7317 58.8065 21.0592C59.182 20.422 59.8487 18.7175 60.202 18.4102C60.577 18.084 62.7045 18.2498 62.6954 18.2617C63.5741 17.1556 61.9616 16.0536 64.1944 16.2867C63.7535 15.4651 65.3024 14.4454 65.752 13.9882C66.875 12.8472 66.9644 12.3191 67.2015 10.884C67.3218 10.1524 66.5362 10.2369 67.5893 10.0701C68.0248 10.0015 68.4425 10.5587 68.7568 10.4769C70.1441 10.117 68.6928 10.1856 69.0756 9.61981C69.1964 9.44031 69.8135 8.71596 69.8076 8.72368C69.7776 8.76003 69.9465 8.09339 70.0864 7.92207C70.3516 7.89935 70.6127 7.853 70.8693 7.78302C70.9996 7.51945 71.1149 7.24952 71.2148 6.97323C72.2189 6.13527 73.721 5.76036 74.4153 4.83969C74.8644 4.24439 74.73 3.66136 75.3104 3.06788C75.863 2.50257 76.5941 2.91201 76.7036 1.63507C76.843 0.0104965 75.0992 -0.712496 74.3858 0.927076C72.4513 -1.4573 64.3656 7.29087 63.4315 8.43376C59.3741 13.3952 55.3862 18.4793 52.0581 23.9657C48.8154 29.3115 46.1539 34.9364 44.0736 40.8326C43.0705 43.6755 42.4598 46.5057 41.8472 49.4463C41.6415 50.431 40.1043 54.8194 40.7442 55.8015C40.8736 55.781 41.0035 55.7601 41.1333 55.7397Z" fill="#575757" fill-opacity="0.8"/>
<path fill-rule="evenodd" clip-rule="evenodd" d="M360.505 177.408C361.189 176.952 361.189 176.952 361.309 176.09C360.392 176.257 360.392 176.257 360.505 177.408Z" fill="#575757" fill-opacity="0.8"/>
<path fill-rule="evenodd" clip-rule="evenodd" d="M23.6362 235.405C23.6449 235.404 23.6514 235.406 23.6564 235.411C23.6417 235.392 23.5884 235.337 23.6362 235.405Z" fill="#575757" fill-opacity="0.8"/>
<path fill-rule="evenodd" clip-rule="evenodd" d="M23.1773 235.866C23.3884 236.323 23.7276 236.437 24.1954 236.206C24.3797 236.47 22.596 234.562 23.1773 235.866Z" fill="#575757" fill-opacity="0.8"/>
<path fill-rule="evenodd" clip-rule="evenodd" d="M54.0226 27.423C52.9522 29.5229 54.2928 27.9956 54.2242 28.6776C54.2691 28.2296 54.4549 27.5911 54.0226 27.423Z" fill="#575757" fill-opacity="0.8"/>
<path fill-rule="evenodd" clip-rule="evenodd" d="M228.03 59.9241C228.494 63.6894 233.642 61.9085 234.8 59.6309C235.643 57.9727 237.772 51.4204 235.481 50.0362C233.783 49.0101 233.42 53.4326 233.001 54.4205C232.3 56.0751 231.752 54.9026 230.192 55.3271C228.47 55.7956 227.839 58.3626 228.03 59.9241Z" fill="#575757" fill-opacity="0.8"/>
<path fill-rule="evenodd" clip-rule="evenodd" d="M222.406 53.0322C224.246 53.4411 226.05 53.2303 227.357 51.7761C228.081 50.9709 229.044 49.3736 227.741 48.5942C226.559 47.8885 225.22 49.5413 223.977 49.1995C222.285 48.7346 223.156 46.9197 222.576 45.7209C220.443 46.9497 219.253 52.3314 222.406 53.0322Z" fill="#575757" fill-opacity="0.8"/>
<path fill-rule="evenodd" clip-rule="evenodd" d="M224.314 62.5402C222.54 62.5365 222.526 64.7196 223.452 65.6553C224.338 66.5505 226.578 67.4566 227.779 66.7604C230.149 65.3862 225.749 62.6819 224.314 62.5402Z" fill="#575757" fill-opacity="0.8"/>
<path fill-rule="evenodd" clip-rule="evenodd" d="M121.111 149.353C121.489 149.537 122.606 150.484 123.076 150.056C122.412 149.387 121.748 148.717 121.084 148.048C120.717 148.45 120.465 149.039 121.111 149.353Z" fill="#575757" fill-opacity="0.8"/>
<path fill-rule="evenodd" clip-rule="evenodd" d="M112.728 53.577C112.54 53.7179 112.351 53.8583 112.163 53.9987C112.799 54.5291 112.783 54.6867 113.424 54.1846C113.234 53.9338 113.002 53.7315 112.728 53.577Z" fill="#575757" fill-opacity="0.8"/>
<path fill-rule="evenodd" clip-rule="evenodd" d="M232.943 178.506C232.586 177.865 231.913 179.047 231.457 179.239C230.716 179.551 230.108 177.897 230.321 179.88C228.646 179.112 227.629 180.873 226.549 181.79C225.022 183.086 223.156 183.789 222.137 185.629C226.93 186.751 232.195 182.617 235.768 179.901C236.351 179.458 239.266 177.221 237.29 177.004C236.483 176.916 233.542 179.583 232.943 178.506Z" fill="#575757" fill-opacity="0.8"/>
<path fill-rule="evenodd" clip-rule="evenodd" d="M231.521 174.624C232.46 173.884 230.436 173.816 230.115 173.739C230.143 174.327 230.17 174.915 230.198 175.504C230.651 175.229 231.092 174.935 231.521 174.624Z" fill="#575757" fill-opacity="0.8"/>
<path fill-rule="evenodd" clip-rule="evenodd" d="M227.995 177.092C228.276 176.916 229.058 176.369 228.526 175.961C228.045 176.267 227.701 176.767 227.626 177.337C227.749 177.255 227.872 177.173 227.995 177.092Z" fill="#575757" fill-opacity="0.8"/>
<path fill-rule="evenodd" clip-rule="evenodd" d="M150.383 129.373C149.784 129.609 149.515 129.981 149.578 130.491C150.5 130.302 150.324 129.431 150.383 129.373Z" fill="#575757" fill-opacity="0.8"/>
</svg>
